M48
; DRILL file {KiCad 7.0.9} date 
; FORMAT={-:-/ absolute / inch / decimal}
; #@! TF.CreationDate,2025-02-10T23:13:00+01:00
; #@! TF.GenerationSoftware,Kicad,Pcbnew,7.0.9
; #@! TF.FileFunction,Plated,1,2,PTH
FMAT,2
INCH
; #@! TA.AperFunction,Plated,PTH,ComponentDrill
T1C0.0236
; #@! TA.AperFunction,Plated,PTH,ComponentDrill
T2C0.0315
; #@! TA.AperFunction,Plated,PTH,ComponentDrill
T3C0.0374
; #@! TA.AperFunction,Plated,PTH,ComponentDrill
T4C0.0394
; #@! TA.AperFunction,Plated,PTH,ComponentDrill
T5C0.0433
%
G90
G05
T1
X2.21Y-2.2217
X2.21Y-2.3004
X2.21Y-2.4317
X2.21Y-2.5104
X2.6596Y-3.4794
X2.6596Y-3.5581
T2
X2.19Y-2.66
X2.19Y-2.76
X2.19Y-2.86
X2.19Y-2.96
X2.19Y-3.06
X2.19Y-3.16
X2.19Y-3.26
X2.19Y-3.36
X2.19Y-3.46
X2.19Y-3.56
X2.3396Y-2.3798
X2.3396Y-2.5298
X2.34Y-2.23
X2.49Y-2.66
X2.49Y-2.76
X2.49Y-2.86
X2.49Y-2.96
X2.49Y-3.06
X2.49Y-3.16
X2.49Y-3.26
X2.49Y-3.36
X2.49Y-3.46
X2.49Y-3.56
X2.6596Y-2.6698
X2.6596Y-3.0298
X2.67Y-3.1298
X2.67Y-3.2298
X2.67Y-3.3298
X2.6996Y-2.3798
X2.6996Y-2.5298
X2.7Y-2.23
T3
X2.8714Y-3.3114
X2.8714Y-3.4098
X2.8714Y-3.5082
T4
X2.87Y-2.15
X2.87Y-2.2484
X2.8714Y-2.9306
X2.8714Y-3.029
X2.8718Y-2.54
X2.8718Y-2.6384
T5
X2.5402Y-2.0873
X2.6402Y-2.0873
T0
M30
