M48
; DRILL file {KiCad 7.0.9} date 
; FORMAT={-:-/ absolute / inch / decimal}
; #@! TF.CreationDate,2025-01-23T13:38:04+01:00
; #@! TF.GenerationSoftware,Kicad,Pcbnew,7.0.9
; #@! TF.FileFunction,Plated,1,2,PTH
FMAT,2
INCH
; #@! TA.AperFunction,Plated,PTH,ComponentDrill
T1C0.0236
; #@! TA.AperFunction,Plated,PTH,ComponentDrill
T2C0.0295
; #@! TA.AperFunction,Plated,PTH,ComponentDrill
T3C0.0315
; #@! TA.AperFunction,Plated,PTH,ComponentDrill
T4C0.0433
%
G90
G05
T1
X2.5392Y-2.4415
X2.5392Y-2.5203
X2.5396Y-2.0811
X2.5396Y-2.1598
X2.5396Y-2.2615
X2.5396Y-2.3403
X2.6796Y-2.7104
X2.6796Y-2.7892
T2
X2.6296Y-2.9975
X2.6796Y-2.9975
X2.7296Y-2.9975
T3
X2.1696Y-2.6498
X2.1696Y-2.7498
X2.1696Y-2.8498
X2.1696Y-2.9498
X2.1696Y-3.0498
X2.1696Y-3.1498
X2.1696Y-3.2498
X2.1696Y-3.3498
X2.1696Y-3.4498
X2.1696Y-3.5498
X2.4696Y-2.6498
X2.4696Y-2.7498
X2.4696Y-2.8498
X2.4696Y-2.9498
X2.4696Y-3.0498
X2.4696Y-3.1498
X2.4696Y-3.2498
X2.4696Y-3.3498
X2.4696Y-3.4498
X2.4696Y-3.5498
X2.6296Y-3.1498
X2.6296Y-3.5498
X2.7596Y-3.1498
X2.7596Y-3.5498
X2.8896Y-3.1498
X2.8896Y-3.5498
T4
X2.17Y-2.08
X2.27Y-2.08
X2.37Y-2.08
X2.7121Y-2.0823
X2.7996Y-2.2323
X2.7996Y-2.3823
X2.8796Y-2.5498
X2.8796Y-2.6498
X2.8796Y-2.7498
X2.8821Y-2.8998
X2.8821Y-2.9998
X2.8996Y-2.2323
X2.8996Y-2.3823
X2.9121Y-2.0823
T0
M30
