%TF.GenerationSoftware,KiCad,Pcbnew,7.0.9*%
%TF.CreationDate,2025-01-23T13:38:17+01:00*%
%TF.ProjectId,shake,7368616b-652e-46b6-9963-61645f706362,rev?*%
%TF.SameCoordinates,Original*%
%TF.FileFunction,Copper,L1,Top*%
%TF.FilePolarity,Positive*%
%FSLAX46Y46*%
G04 Gerber Fmt 4.6, Leading zero omitted, Abs format (unit mm)*
G04 Created by KiCad (PCBNEW 7.0.9) date 2025-01-23 13:38:17*
%MOMM*%
%LPD*%
G01*
G04 APERTURE LIST*
%TA.AperFunction,ComponentPad*%
%ADD10R,1.200000X1.200000*%
%TD*%
%TA.AperFunction,ComponentPad*%
%ADD11C,1.200000*%
%TD*%
%TA.AperFunction,ComponentPad*%
%ADD12R,1.778000X1.778000*%
%TD*%
%TA.AperFunction,ComponentPad*%
%ADD13C,1.778000*%
%TD*%
%TA.AperFunction,ComponentPad*%
%ADD14C,1.600000*%
%TD*%
%TA.AperFunction,ComponentPad*%
%ADD15O,1.600000X1.600000*%
%TD*%
%TA.AperFunction,ComponentPad*%
%ADD16R,1.050000X1.500000*%
%TD*%
%TA.AperFunction,ComponentPad*%
%ADD17O,1.050000X1.500000*%
%TD*%
%TA.AperFunction,ComponentPad*%
%ADD18R,1.600000X1.600000*%
%TD*%
%TA.AperFunction,Conductor*%
%ADD19C,0.300000*%
%TD*%
G04 APERTURE END LIST*
D10*
%TO.P,C3,1*%
%TO.N,reset*%
X64496000Y-62014401D03*
D11*
%TO.P,C3,2*%
%TO.N,GND*%
X64496000Y-64014401D03*
%TD*%
D12*
%TO.P,BAT,1*%
%TO.N,+3.7V*%
X71110000Y-56700500D03*
D13*
%TO.P,BAT,2*%
%TO.N,GND*%
X73650000Y-56700500D03*
%TD*%
D10*
%TO.P,C4,1*%
%TO.N,sensor*%
X68062000Y-70845000D03*
D11*
%TO.P,C4,2*%
%TO.N,GND*%
X68062000Y-68845000D03*
%TD*%
D14*
%TO.P,R3,1*%
%TO.N,led*%
X73396000Y-90165000D03*
D15*
%TO.P,R3,2*%
%TO.N,T1base*%
X73396000Y-80005000D03*
%TD*%
D10*
%TO.P,C1,1*%
%TO.N,+3.7V*%
X64506000Y-52859000D03*
D11*
%TO.P,C1,2*%
%TO.N,GND*%
X64506000Y-54859000D03*
%TD*%
D12*
%TO.P,LED,1*%
%TO.N,LedVcc*%
X73205500Y-76195000D03*
D13*
%TO.P,LED,2*%
%TO.N,GND*%
X73205500Y-73655000D03*
%TD*%
D16*
%TO.P,T1,1*%
%TO.N,LedVcc*%
X69332000Y-76137000D03*
D17*
%TO.P,T1,2*%
%TO.N,T1base*%
X68062000Y-76137000D03*
%TO.P,T1,3*%
%TO.N,T1VCC*%
X66792000Y-76137000D03*
%TD*%
D12*
%TO.P,CHRG,1*%
%TO.N,+3.7V*%
X71110000Y-60510500D03*
D13*
%TO.P,CHRG,2*%
%TO.N,GND*%
X73650000Y-60510500D03*
%TD*%
D14*
%TO.P,R1,1*%
%TO.N,+5V*%
X66792000Y-90165000D03*
D15*
%TO.P,R1,2*%
%TO.N,reset*%
X66792000Y-80005000D03*
%TD*%
D12*
%TO.P,SNSR,1*%
%TO.N,+5V*%
X73142000Y-69845000D03*
D13*
%TO.P,SNSR,2*%
%TO.N,GND*%
X73142000Y-67305000D03*
%TO.P,SNSR,3*%
%TO.N,sensor*%
X73142000Y-64765000D03*
%TD*%
D10*
%TO.P,C2,1*%
%TO.N,+5V*%
X64506000Y-57442401D03*
D11*
%TO.P,C2,2*%
%TO.N,GND*%
X64506000Y-59442401D03*
%TD*%
D12*
%TO.P,BST,1*%
%TO.N,+5V*%
X55118000Y-52832000D03*
D13*
%TO.P,BST,2*%
%TO.N,GND*%
X57658000Y-52832000D03*
%TO.P,BST,3*%
%TO.N,+3.7V*%
X60198000Y-52832000D03*
%TD*%
D18*
%TO.P,MSP430,1*%
%TO.N,+5V*%
X55108000Y-67305000D03*
D15*
%TO.P,MSP430,2*%
%TO.N,N/C*%
X55108000Y-69845000D03*
%TO.P,MSP430,3*%
X55108000Y-72385000D03*
%TO.P,MSP430,4*%
X55108000Y-74925000D03*
%TO.P,MSP430,5*%
X55108000Y-77465000D03*
%TO.P,MSP430,6*%
X55108000Y-80005000D03*
%TO.P,MSP430,7*%
X55108000Y-82545000D03*
%TO.P,MSP430,8*%
X55108000Y-85085000D03*
%TO.P,MSP430,9*%
X55108000Y-87625000D03*
%TO.P,MSP430,10*%
X55108000Y-90165000D03*
%TO.P,MSP430,11*%
%TO.N,led*%
X62728000Y-90165000D03*
%TO.P,MSP430,12*%
%TO.N,N/C*%
X62728000Y-87625000D03*
%TO.P,MSP430,13*%
X62728000Y-85085000D03*
%TO.P,MSP430,14*%
X62728000Y-82545000D03*
%TO.P,MSP430,15*%
X62728000Y-80005000D03*
%TO.P,MSP430,16*%
%TO.N,reset*%
X62728000Y-77465000D03*
%TO.P,MSP430,17*%
%TO.N,N/C*%
X62728000Y-74925000D03*
%TO.P,MSP430,18*%
%TO.N,sensor*%
X62728000Y-72385000D03*
%TO.P,MSP430,19*%
%TO.N,N/C*%
X62728000Y-69845000D03*
%TO.P,MSP430,20*%
%TO.N,GND*%
X62728000Y-67305000D03*
%TD*%
D12*
%TO.P,SW,1*%
%TO.N,+3.7V*%
X68887500Y-52890500D03*
D13*
%TO.P,SW,2*%
X73967500Y-52890500D03*
%TD*%
D14*
%TO.P,R2,1*%
%TO.N,+5V*%
X70094000Y-90165000D03*
D15*
%TO.P,R2,2*%
%TO.N,T1VCC*%
X70094000Y-80005000D03*
%TD*%
D19*
%TO.N,+5V*%
X55118000Y-67564000D02*
X55372000Y-67818000D01*
%TD*%
M02*
