%TF.GenerationSoftware,KiCad,Pcbnew,7.0.9*%
%TF.CreationDate,2025-02-10T23:12:55+01:00*%
%TF.ProjectId,shake,7368616b-652e-46b6-9963-61645f706362,rev?*%
%TF.SameCoordinates,Original*%
%TF.FileFunction,Soldermask,Top*%
%TF.FilePolarity,Negative*%
%FSLAX46Y46*%
G04 Gerber Fmt 4.6, Leading zero omitted, Abs format (unit mm)*
G04 Created by KiCad (PCBNEW 7.0.9) date 2025-02-10 23:12:55*
%MOMM*%
%LPD*%
G01*
G04 APERTURE LIST*
G04 Aperture macros list*
%AMRoundRect*
0 Rectangle with rounded corners*
0 $1 Rounding radius*
0 $2 $3 $4 $5 $6 $7 $8 $9 X,Y pos of 4 corners*
0 Add a 4 corners polygon primitive as box body*
4,1,4,$2,$3,$4,$5,$6,$7,$8,$9,$2,$3,0*
0 Add four circle primitives for the rounded corners*
1,1,$1+$1,$2,$3*
1,1,$1+$1,$4,$5*
1,1,$1+$1,$6,$7*
1,1,$1+$1,$8,$9*
0 Add four rect primitives between the rounded corners*
20,1,$1+$1,$2,$3,$4,$5,0*
20,1,$1+$1,$4,$5,$6,$7,0*
20,1,$1+$1,$6,$7,$8,$9,0*
20,1,$1+$1,$8,$9,$2,$3,0*%
G04 Aperture macros list end*
%ADD10C,1.600000*%
%ADD11O,1.600000X1.600000*%
%ADD12R,1.500000X1.500000*%
%ADD13C,1.500000*%
%ADD14RoundRect,0.250000X-0.750000X0.600000X-0.750000X-0.600000X0.750000X-0.600000X0.750000X0.600000X0*%
%ADD15O,2.000000X1.700000*%
%ADD16R,1.600000X1.600000*%
%ADD17R,1.778000X1.778000*%
%ADD18C,1.778000*%
%ADD19RoundRect,0.250000X-0.725000X0.600000X-0.725000X-0.600000X0.725000X-0.600000X0.725000X0.600000X0*%
%ADD20O,1.950000X1.700000*%
G04 APERTURE END LIST*
D10*
%TO.C,R3*%
X59436000Y-56642000D03*
D11*
X68580000Y-56642000D03*
%TD*%
D12*
%TO.C,C1*%
X56134000Y-56431401D03*
D13*
X56134000Y-58431401D03*
%TD*%
D10*
%TO.C,R2*%
X68570000Y-60447000D03*
D11*
X59426000Y-60447000D03*
%TD*%
D12*
%TO.C,C2*%
X56134000Y-61765401D03*
D13*
X56134000Y-63765401D03*
%TD*%
D14*
%TO.C,LED*%
X72934000Y-74437000D03*
D15*
X72934000Y-76937000D03*
%TD*%
D14*
%TO.C,CHRG*%
X72944000Y-64516000D03*
D15*
X72944000Y-67016000D03*
%TD*%
D10*
%TO.C,R1*%
X59426000Y-64257000D03*
D11*
X68570000Y-64257000D03*
%TD*%
D10*
%TO.C,R4*%
X67554000Y-67813000D03*
D11*
X67554000Y-76957000D03*
%TD*%
D12*
%TO.C,Q1*%
X67818000Y-84577000D03*
D13*
X67818000Y-82037000D03*
X67818000Y-79497000D03*
%TD*%
D16*
%TO.C,MSP430*%
X55626000Y-67564000D03*
D11*
X55626000Y-70104000D03*
X55626000Y-72644000D03*
X55626000Y-75184000D03*
X55626000Y-77724000D03*
X55626000Y-80264000D03*
X55626000Y-82804000D03*
X55626000Y-85344000D03*
X55626000Y-87884000D03*
X55626000Y-90424000D03*
X63246000Y-90424000D03*
X63246000Y-87884000D03*
X63246000Y-85344000D03*
X63246000Y-82804000D03*
X63246000Y-80264000D03*
X63246000Y-77724000D03*
X63246000Y-75184000D03*
X63246000Y-72644000D03*
X63246000Y-70104000D03*
X63246000Y-67564000D03*
%TD*%
D17*
%TO.C,SW*%
X67062000Y-53017500D03*
D18*
X64522000Y-53017500D03*
%TD*%
D19*
%TO.C,SNSR*%
X72934000Y-84109000D03*
D20*
X72934000Y-86609000D03*
X72934000Y-89109000D03*
%TD*%
D12*
%TO.C,C3*%
X67554000Y-90375600D03*
D13*
X67554000Y-88375600D03*
%TD*%
D14*
%TO.C,BAT*%
X72898000Y-54610000D03*
D15*
X72898000Y-57110000D03*
%TD*%
M02*
