%TF.GenerationSoftware,KiCad,Pcbnew,7.0.9*%
%TF.CreationDate,2025-02-10T23:12:55+01:00*%
%TF.ProjectId,shake,7368616b-652e-46b6-9963-61645f706362,rev?*%
%TF.SameCoordinates,Original*%
%TF.FileFunction,Copper,L1,Top*%
%TF.FilePolarity,Positive*%
%FSLAX46Y46*%
G04 Gerber Fmt 4.6, Leading zero omitted, Abs format (unit mm)*
G04 Created by KiCad (PCBNEW 7.0.9) date 2025-02-10 23:12:55*
%MOMM*%
%LPD*%
G01*
G04 APERTURE LIST*
G04 Aperture macros list*
%AMRoundRect*
0 Rectangle with rounded corners*
0 $1 Rounding radius*
0 $2 $3 $4 $5 $6 $7 $8 $9 X,Y pos of 4 corners*
0 Add a 4 corners polygon primitive as box body*
4,1,4,$2,$3,$4,$5,$6,$7,$8,$9,$2,$3,0*
0 Add four circle primitives for the rounded corners*
1,1,$1+$1,$2,$3*
1,1,$1+$1,$4,$5*
1,1,$1+$1,$6,$7*
1,1,$1+$1,$8,$9*
0 Add four rect primitives between the rounded corners*
20,1,$1+$1,$2,$3,$4,$5,0*
20,1,$1+$1,$4,$5,$6,$7,0*
20,1,$1+$1,$6,$7,$8,$9,0*
20,1,$1+$1,$8,$9,$2,$3,0*%
G04 Aperture macros list end*
%TA.AperFunction,ComponentPad*%
%ADD10C,1.600000*%
%TD*%
%TA.AperFunction,ComponentPad*%
%ADD11O,1.600000X1.600000*%
%TD*%
%TA.AperFunction,ComponentPad*%
%ADD12R,1.500000X1.500000*%
%TD*%
%TA.AperFunction,ComponentPad*%
%ADD13C,1.500000*%
%TD*%
%TA.AperFunction,ComponentPad*%
%ADD14RoundRect,0.250000X-0.750000X0.600000X-0.750000X-0.600000X0.750000X-0.600000X0.750000X0.600000X0*%
%TD*%
%TA.AperFunction,ComponentPad*%
%ADD15O,2.000000X1.700000*%
%TD*%
%TA.AperFunction,ComponentPad*%
%ADD16R,1.600000X1.600000*%
%TD*%
%TA.AperFunction,ComponentPad*%
%ADD17R,1.778000X1.778000*%
%TD*%
%TA.AperFunction,ComponentPad*%
%ADD18C,1.778000*%
%TD*%
%TA.AperFunction,ComponentPad*%
%ADD19RoundRect,0.250000X-0.725000X0.600000X-0.725000X-0.600000X0.725000X-0.600000X0.725000X0.600000X0*%
%TD*%
%TA.AperFunction,ComponentPad*%
%ADD20O,1.950000X1.700000*%
%TD*%
G04 APERTURE END LIST*
D10*
%TO.P,R3,1*%
%TO.N,+3.7V*%
X59436000Y-56642000D03*
D11*
%TO.P,R3,2*%
%TO.N,T1VCC*%
X68580000Y-56642000D03*
%TD*%
D12*
%TO.P,C1,1*%
%TO.N,+3.7V*%
X56134000Y-56431401D03*
D13*
%TO.P,C1,2*%
%TO.N,GND*%
X56134000Y-58431401D03*
%TD*%
D10*
%TO.P,R2,1*%
%TO.N,T1VCC*%
X68570000Y-60447000D03*
D11*
%TO.P,R2,2*%
%TO.N,T1base*%
X59426000Y-60447000D03*
%TD*%
D12*
%TO.P,C2,1*%
%TO.N,reset*%
X56134000Y-61765401D03*
D13*
%TO.P,C2,2*%
%TO.N,GND*%
X56134000Y-63765401D03*
%TD*%
D14*
%TO.P,LED,1*%
%TO.N,LedVcc*%
X72934000Y-74437000D03*
D15*
%TO.P,LED,2*%
%TO.N,GND*%
X72934000Y-76937000D03*
%TD*%
D14*
%TO.P,CHRG,1*%
%TO.N,+3.7V*%
X72944000Y-64516000D03*
D15*
%TO.P,CHRG,2*%
%TO.N,GND*%
X72944000Y-67016000D03*
%TD*%
D10*
%TO.P,R1,1*%
%TO.N,+3.7V*%
X59426000Y-64257000D03*
D11*
%TO.P,R1,2*%
%TO.N,reset*%
X68570000Y-64257000D03*
%TD*%
D10*
%TO.P,R4,1*%
%TO.N,led*%
X67554000Y-67813000D03*
D11*
%TO.P,R4,2*%
%TO.N,T1base*%
X67554000Y-76957000D03*
%TD*%
D12*
%TO.P,Q1,1*%
%TO.N,LedVcc*%
X67818000Y-84577000D03*
D13*
%TO.P,Q1,2*%
%TO.N,T1base*%
X67818000Y-82037000D03*
%TO.P,Q1,3*%
%TO.N,T1VCC*%
X67818000Y-79497000D03*
%TD*%
D16*
%TO.P,MSP430,1*%
%TO.N,+3.7V*%
X55626000Y-67564000D03*
D11*
%TO.P,MSP430,2*%
%TO.N,N/C*%
X55626000Y-70104000D03*
%TO.P,MSP430,3*%
X55626000Y-72644000D03*
%TO.P,MSP430,4*%
X55626000Y-75184000D03*
%TO.P,MSP430,5*%
X55626000Y-77724000D03*
%TO.P,MSP430,6*%
X55626000Y-80264000D03*
%TO.P,MSP430,7*%
X55626000Y-82804000D03*
%TO.P,MSP430,8*%
X55626000Y-85344000D03*
%TO.P,MSP430,9*%
X55626000Y-87884000D03*
%TO.P,MSP430,10*%
X55626000Y-90424000D03*
%TO.P,MSP430,11*%
%TO.N,sensor*%
X63246000Y-90424000D03*
%TO.P,MSP430,12*%
%TO.N,led*%
X63246000Y-87884000D03*
%TO.P,MSP430,13*%
%TO.N,N/C*%
X63246000Y-85344000D03*
%TO.P,MSP430,14*%
X63246000Y-82804000D03*
%TO.P,MSP430,15*%
X63246000Y-80264000D03*
%TO.P,MSP430,16*%
%TO.N,reset*%
X63246000Y-77724000D03*
%TO.P,MSP430,17*%
%TO.N,N/C*%
X63246000Y-75184000D03*
%TO.P,MSP430,18*%
X63246000Y-72644000D03*
%TO.P,MSP430,19*%
X63246000Y-70104000D03*
%TO.P,MSP430,20*%
%TO.N,GND*%
X63246000Y-67564000D03*
%TD*%
D17*
%TO.P,SW,1*%
%TO.N,+3.7V*%
X67062000Y-53017500D03*
D18*
%TO.P,SW,2*%
X64522000Y-53017500D03*
%TD*%
D19*
%TO.P,SNSR,1*%
%TO.N,+3.7V*%
X72934000Y-84109000D03*
D20*
%TO.P,SNSR,2*%
%TO.N,GND*%
X72934000Y-86609000D03*
%TO.P,SNSR,3*%
%TO.N,sensor*%
X72934000Y-89109000D03*
%TD*%
D12*
%TO.P,C3,1*%
%TO.N,sensor*%
X67554000Y-90375600D03*
D13*
%TO.P,C3,2*%
%TO.N,GND*%
X67554000Y-88375600D03*
%TD*%
D14*
%TO.P,BAT,1*%
%TO.N,+3.7V*%
X72898000Y-54610000D03*
D15*
%TO.P,BAT,2*%
%TO.N,GND*%
X72898000Y-57110000D03*
%TD*%
M02*
