%TF.GenerationSoftware,KiCad,Pcbnew,7.0.9*%
%TF.CreationDate,2025-01-23T13:38:17+01:00*%
%TF.ProjectId,shake,7368616b-652e-46b6-9963-61645f706362,rev?*%
%TF.SameCoordinates,Original*%
%TF.FileFunction,Copper,L2,Bot*%
%TF.FilePolarity,Positive*%
%FSLAX46Y46*%
G04 Gerber Fmt 4.6, Leading zero omitted, Abs format (unit mm)*
G04 Created by KiCad (PCBNEW 7.0.9) date 2025-01-23 13:38:17*
%MOMM*%
%LPD*%
G01*
G04 APERTURE LIST*
%TA.AperFunction,ComponentPad*%
%ADD10R,1.200000X1.200000*%
%TD*%
%TA.AperFunction,ComponentPad*%
%ADD11C,1.200000*%
%TD*%
%TA.AperFunction,ComponentPad*%
%ADD12R,1.778000X1.778000*%
%TD*%
%TA.AperFunction,ComponentPad*%
%ADD13C,1.778000*%
%TD*%
%TA.AperFunction,ComponentPad*%
%ADD14C,1.600000*%
%TD*%
%TA.AperFunction,ComponentPad*%
%ADD15O,1.600000X1.600000*%
%TD*%
%TA.AperFunction,ComponentPad*%
%ADD16R,1.050000X1.500000*%
%TD*%
%TA.AperFunction,ComponentPad*%
%ADD17O,1.050000X1.500000*%
%TD*%
%TA.AperFunction,ComponentPad*%
%ADD18R,1.600000X1.600000*%
%TD*%
%TA.AperFunction,Conductor*%
%ADD19C,0.300000*%
%TD*%
%TA.AperFunction,Conductor*%
%ADD20C,0.250000*%
%TD*%
G04 APERTURE END LIST*
D10*
%TO.P,C3,1*%
%TO.N,reset*%
X64496000Y-62014401D03*
D11*
%TO.P,C3,2*%
%TO.N,GND*%
X64496000Y-64014401D03*
%TD*%
D12*
%TO.P,BAT,1*%
%TO.N,+3.7V*%
X71110000Y-56700500D03*
D13*
%TO.P,BAT,2*%
%TO.N,GND*%
X73650000Y-56700500D03*
%TD*%
D10*
%TO.P,C4,1*%
%TO.N,sensor*%
X68062000Y-70845000D03*
D11*
%TO.P,C4,2*%
%TO.N,GND*%
X68062000Y-68845000D03*
%TD*%
D14*
%TO.P,R3,1*%
%TO.N,led*%
X73396000Y-90165000D03*
D15*
%TO.P,R3,2*%
%TO.N,T1base*%
X73396000Y-80005000D03*
%TD*%
D10*
%TO.P,C1,1*%
%TO.N,+3.7V*%
X64506000Y-52859000D03*
D11*
%TO.P,C1,2*%
%TO.N,GND*%
X64506000Y-54859000D03*
%TD*%
D12*
%TO.P,LED,1*%
%TO.N,LedVcc*%
X73205500Y-76195000D03*
D13*
%TO.P,LED,2*%
%TO.N,GND*%
X73205500Y-73655000D03*
%TD*%
D16*
%TO.P,T1,1*%
%TO.N,LedVcc*%
X69332000Y-76137000D03*
D17*
%TO.P,T1,2*%
%TO.N,T1base*%
X68062000Y-76137000D03*
%TO.P,T1,3*%
%TO.N,T1VCC*%
X66792000Y-76137000D03*
%TD*%
D12*
%TO.P,CHRG,1*%
%TO.N,+3.7V*%
X71110000Y-60510500D03*
D13*
%TO.P,CHRG,2*%
%TO.N,GND*%
X73650000Y-60510500D03*
%TD*%
D14*
%TO.P,R1,1*%
%TO.N,+5V*%
X66792000Y-90165000D03*
D15*
%TO.P,R1,2*%
%TO.N,reset*%
X66792000Y-80005000D03*
%TD*%
D12*
%TO.P,SNSR,1*%
%TO.N,+5V*%
X73142000Y-69845000D03*
D13*
%TO.P,SNSR,2*%
%TO.N,GND*%
X73142000Y-67305000D03*
%TO.P,SNSR,3*%
%TO.N,sensor*%
X73142000Y-64765000D03*
%TD*%
D10*
%TO.P,C2,1*%
%TO.N,+5V*%
X64506000Y-57442401D03*
D11*
%TO.P,C2,2*%
%TO.N,GND*%
X64506000Y-59442401D03*
%TD*%
D12*
%TO.P,BST,1*%
%TO.N,+5V*%
X55118000Y-52832000D03*
D13*
%TO.P,BST,2*%
%TO.N,GND*%
X57658000Y-52832000D03*
%TO.P,BST,3*%
%TO.N,+3.7V*%
X60198000Y-52832000D03*
%TD*%
D18*
%TO.P,MSP430,1*%
%TO.N,+5V*%
X55108000Y-67305000D03*
D15*
%TO.P,MSP430,2*%
%TO.N,N/C*%
X55108000Y-69845000D03*
%TO.P,MSP430,3*%
X55108000Y-72385000D03*
%TO.P,MSP430,4*%
X55108000Y-74925000D03*
%TO.P,MSP430,5*%
X55108000Y-77465000D03*
%TO.P,MSP430,6*%
X55108000Y-80005000D03*
%TO.P,MSP430,7*%
X55108000Y-82545000D03*
%TO.P,MSP430,8*%
X55108000Y-85085000D03*
%TO.P,MSP430,9*%
X55108000Y-87625000D03*
%TO.P,MSP430,10*%
X55108000Y-90165000D03*
%TO.P,MSP430,11*%
%TO.N,led*%
X62728000Y-90165000D03*
%TO.P,MSP430,12*%
%TO.N,N/C*%
X62728000Y-87625000D03*
%TO.P,MSP430,13*%
X62728000Y-85085000D03*
%TO.P,MSP430,14*%
X62728000Y-82545000D03*
%TO.P,MSP430,15*%
X62728000Y-80005000D03*
%TO.P,MSP430,16*%
%TO.N,reset*%
X62728000Y-77465000D03*
%TO.P,MSP430,17*%
%TO.N,N/C*%
X62728000Y-74925000D03*
%TO.P,MSP430,18*%
%TO.N,sensor*%
X62728000Y-72385000D03*
%TO.P,MSP430,19*%
%TO.N,N/C*%
X62728000Y-69845000D03*
%TO.P,MSP430,20*%
%TO.N,GND*%
X62728000Y-67305000D03*
%TD*%
D12*
%TO.P,SW,1*%
%TO.N,+3.7V*%
X68887500Y-52890500D03*
D13*
%TO.P,SW,2*%
X73967500Y-52890500D03*
%TD*%
D14*
%TO.P,R2,1*%
%TO.N,+5V*%
X70094000Y-90165000D03*
D15*
%TO.P,R2,2*%
%TO.N,T1VCC*%
X70094000Y-80005000D03*
%TD*%
D19*
%TO.N,reset*%
X65268000Y-80005000D02*
X66538000Y-80005000D01*
X62728000Y-77465000D02*
X65268000Y-80005000D01*
X60950000Y-75941000D02*
X62474000Y-77465000D01*
X63446599Y-62014401D02*
X60950000Y-64511000D01*
X64496000Y-62014401D02*
X63446599Y-62014401D01*
X60950000Y-64511000D02*
X60950000Y-75941000D01*
%TO.N,+3.7V*%
X71110000Y-54351000D02*
X71110000Y-56700500D01*
X73967500Y-52890500D02*
X72570500Y-52890500D01*
X71110000Y-60510500D02*
X71110000Y-56700500D01*
X64506000Y-52859000D02*
X60225000Y-52859000D01*
X68887500Y-52890500D02*
X64537500Y-52890500D01*
X72570500Y-52890500D02*
X71110000Y-54351000D01*
%TO.N,GND*%
X64506000Y-59442401D02*
X66030000Y-60966401D01*
X73142000Y-67305000D02*
X74920000Y-65527000D01*
X57658000Y-54107000D02*
X58410000Y-54859000D01*
X62728000Y-65782401D02*
X64496000Y-64014401D01*
X71364000Y-69083000D02*
X73142000Y-67305000D01*
X62728000Y-67305000D02*
X62728000Y-65782401D01*
X62728000Y-67305000D02*
X64268000Y-68845000D01*
X74920000Y-61717000D02*
X73713500Y-60510500D01*
X66030000Y-57918401D02*
X64506000Y-59442401D01*
X57658000Y-52832000D02*
X57658000Y-54107000D01*
X73205500Y-73655000D02*
X71364000Y-71813500D01*
X64506000Y-54859000D02*
X66030000Y-56383000D01*
X64268000Y-68845000D02*
X68062000Y-68845000D01*
X66030000Y-56383000D02*
X66030000Y-57918401D01*
X71364000Y-71813500D02*
X71364000Y-69083000D01*
X66030000Y-60966401D02*
X66030000Y-62480401D01*
X73650000Y-60510500D02*
X73650000Y-56700500D01*
X66030000Y-62480401D02*
X64496000Y-64014401D01*
X68062000Y-66098500D02*
X73650000Y-60510500D01*
X58410000Y-54859000D02*
X64506000Y-54859000D01*
X68062000Y-68845000D02*
X68062000Y-66098500D01*
X74920000Y-65527000D02*
X74920000Y-61717000D01*
%TO.N,+5V*%
X55108000Y-59431000D02*
X55108000Y-67305000D01*
X58326401Y-57442401D02*
X55118000Y-54234000D01*
X55118000Y-52832000D02*
X55118000Y-67295000D01*
X55118000Y-67295000D02*
X55108000Y-67305000D01*
X73904000Y-91943000D02*
X61966000Y-91943000D01*
X69332000Y-91943000D02*
X68316000Y-91943000D01*
X66030000Y-91943000D02*
X65077500Y-91943000D01*
X64506000Y-57442401D02*
X58326401Y-57442401D01*
X57140000Y-87117000D02*
X57140000Y-69337000D01*
X66792000Y-90228500D02*
X66792000Y-91181000D01*
X57140000Y-69337000D02*
X55108000Y-67305000D01*
X74920000Y-90927000D02*
X73904000Y-91943000D01*
X61966000Y-91943000D02*
X57140000Y-87117000D01*
X66792000Y-91181000D02*
X66030000Y-91943000D01*
X55118000Y-54234000D02*
X55118000Y-52832000D01*
X55108000Y-60447000D02*
X55108000Y-67305000D01*
X70094000Y-90165000D02*
X70094000Y-91181000D01*
X73142000Y-69845000D02*
X74920000Y-71623000D01*
X74920000Y-71623000D02*
X74920000Y-90927000D01*
X70094000Y-91181000D02*
X69332000Y-91943000D01*
D20*
%TO.N,sensor*%
X73142000Y-64765000D02*
X69840000Y-68067000D01*
X68840000Y-70845000D02*
X68062000Y-70845000D01*
X69840000Y-69845000D02*
X68840000Y-70845000D01*
X69840000Y-68067000D02*
X69840000Y-69845000D01*
X68062000Y-70845000D02*
X64268000Y-70845000D01*
X64268000Y-70845000D02*
X62728000Y-72385000D01*
D19*
%TO.N,led*%
X62728000Y-90165000D02*
X64252000Y-88641000D01*
X64252000Y-88641000D02*
X71872000Y-88641000D01*
X71872000Y-88641000D02*
X73396000Y-90165000D01*
D20*
%TO.N,T1VCC*%
X68962630Y-80005000D02*
X66792000Y-77834370D01*
X70094000Y-80005000D02*
X68962630Y-80005000D01*
X66792000Y-77834370D02*
X66792000Y-76137000D01*
D19*
%TO.N,LedVcc*%
X73205500Y-76195000D02*
X69460000Y-76195000D01*
%TO.N,T1base*%
X71872000Y-78481000D02*
X73396000Y-80005000D01*
X68062000Y-76137000D02*
X68062000Y-77973000D01*
X68062000Y-77973000D02*
X68570000Y-78481000D01*
X68570000Y-78481000D02*
X71872000Y-78481000D01*
%TD*%
%TA.AperFunction,NonConductor*%
G36*
X75625039Y-50820185D02*
G01*
X75670794Y-50872989D01*
X75682000Y-50924500D01*
X75682000Y-92581000D01*
X75662315Y-92648039D01*
X75609511Y-92693794D01*
X75558000Y-92705000D01*
X53464500Y-92705000D01*
X53397461Y-92685315D01*
X53351706Y-92632511D01*
X53340500Y-92581000D01*
X53340500Y-90165000D01*
X54102659Y-90165000D01*
X54121975Y-90361129D01*
X54121976Y-90361132D01*
X54159433Y-90484612D01*
X54179188Y-90549733D01*
X54272086Y-90723532D01*
X54272090Y-90723539D01*
X54397116Y-90875883D01*
X54549460Y-91000909D01*
X54549467Y-91000913D01*
X54723266Y-91093811D01*
X54723269Y-91093811D01*
X54723273Y-91093814D01*
X54911868Y-91151024D01*
X55108000Y-91170341D01*
X55304132Y-91151024D01*
X55492727Y-91093814D01*
X55501534Y-91089107D01*
X55604717Y-91033954D01*
X55666538Y-91000910D01*
X55818883Y-90875883D01*
X55943910Y-90723538D01*
X56036814Y-90549727D01*
X56094024Y-90361132D01*
X56113341Y-90165000D01*
X56094024Y-89968868D01*
X56036814Y-89780273D01*
X56036811Y-89780269D01*
X56036811Y-89780266D01*
X55943913Y-89606467D01*
X55943909Y-89606460D01*
X55818883Y-89454116D01*
X55666539Y-89329090D01*
X55666532Y-89329086D01*
X55492733Y-89236188D01*
X55492727Y-89236186D01*
X55304132Y-89178976D01*
X55304129Y-89178975D01*
X55108000Y-89159659D01*
X54911870Y-89178975D01*
X54723266Y-89236188D01*
X54549467Y-89329086D01*
X54549460Y-89329090D01*
X54397116Y-89454116D01*
X54272090Y-89606460D01*
X54272086Y-89606467D01*
X54179188Y-89780266D01*
X54121975Y-89968870D01*
X54102659Y-90165000D01*
X53340500Y-90165000D01*
X53340500Y-87625000D01*
X54102659Y-87625000D01*
X54121975Y-87821129D01*
X54179188Y-88009733D01*
X54272086Y-88183532D01*
X54272090Y-88183539D01*
X54397116Y-88335883D01*
X54549460Y-88460909D01*
X54549467Y-88460913D01*
X54723266Y-88553811D01*
X54723269Y-88553811D01*
X54723273Y-88553814D01*
X54911868Y-88611024D01*
X55108000Y-88630341D01*
X55304132Y-88611024D01*
X55492727Y-88553814D01*
X55666538Y-88460910D01*
X55818883Y-88335883D01*
X55943910Y-88183538D01*
X56036814Y-88009727D01*
X56094024Y-87821132D01*
X56113341Y-87625000D01*
X56094024Y-87428868D01*
X56036814Y-87240273D01*
X56036811Y-87240269D01*
X56036811Y-87240266D01*
X55943913Y-87066467D01*
X55943909Y-87066460D01*
X55818883Y-86914116D01*
X55666539Y-86789090D01*
X55666532Y-86789086D01*
X55492733Y-86696188D01*
X55492727Y-86696186D01*
X55304132Y-86638976D01*
X55304129Y-86638975D01*
X55108000Y-86619659D01*
X54911870Y-86638975D01*
X54723266Y-86696188D01*
X54549467Y-86789086D01*
X54549460Y-86789090D01*
X54397116Y-86914116D01*
X54272090Y-87066460D01*
X54272086Y-87066467D01*
X54179188Y-87240266D01*
X54121975Y-87428870D01*
X54102659Y-87625000D01*
X53340500Y-87625000D01*
X53340500Y-85085000D01*
X54102659Y-85085000D01*
X54121975Y-85281129D01*
X54179188Y-85469733D01*
X54272086Y-85643532D01*
X54272090Y-85643539D01*
X54397116Y-85795883D01*
X54549460Y-85920909D01*
X54549467Y-85920913D01*
X54723266Y-86013811D01*
X54723269Y-86013811D01*
X54723273Y-86013814D01*
X54911868Y-86071024D01*
X55108000Y-86090341D01*
X55304132Y-86071024D01*
X55492727Y-86013814D01*
X55666538Y-85920910D01*
X55818883Y-85795883D01*
X55943910Y-85643538D01*
X56036814Y-85469727D01*
X56094024Y-85281132D01*
X56113341Y-85085000D01*
X56094024Y-84888868D01*
X56036814Y-84700273D01*
X56036811Y-84700269D01*
X56036811Y-84700266D01*
X55943913Y-84526467D01*
X55943909Y-84526460D01*
X55818883Y-84374116D01*
X55666539Y-84249090D01*
X55666532Y-84249086D01*
X55492733Y-84156188D01*
X55492727Y-84156186D01*
X55304132Y-84098976D01*
X55304129Y-84098975D01*
X55108000Y-84079659D01*
X54911870Y-84098975D01*
X54723266Y-84156188D01*
X54549467Y-84249086D01*
X54549460Y-84249090D01*
X54397116Y-84374116D01*
X54272090Y-84526460D01*
X54272086Y-84526467D01*
X54179188Y-84700266D01*
X54121975Y-84888870D01*
X54102659Y-85085000D01*
X53340500Y-85085000D01*
X53340500Y-82545000D01*
X54102659Y-82545000D01*
X54121975Y-82741129D01*
X54179188Y-82929733D01*
X54272086Y-83103532D01*
X54272090Y-83103539D01*
X54397116Y-83255883D01*
X54549460Y-83380909D01*
X54549467Y-83380913D01*
X54723266Y-83473811D01*
X54723269Y-83473811D01*
X54723273Y-83473814D01*
X54911868Y-83531024D01*
X55108000Y-83550341D01*
X55304132Y-83531024D01*
X55492727Y-83473814D01*
X55666538Y-83380910D01*
X55818883Y-83255883D01*
X55943910Y-83103538D01*
X56036814Y-82929727D01*
X56094024Y-82741132D01*
X56113341Y-82545000D01*
X56094024Y-82348868D01*
X56036814Y-82160273D01*
X56036811Y-82160269D01*
X56036811Y-82160266D01*
X55943913Y-81986467D01*
X55943909Y-81986460D01*
X55818883Y-81834116D01*
X55666539Y-81709090D01*
X55666532Y-81709086D01*
X55492733Y-81616188D01*
X55492727Y-81616186D01*
X55304132Y-81558976D01*
X55304129Y-81558975D01*
X55108000Y-81539659D01*
X54911870Y-81558975D01*
X54723266Y-81616188D01*
X54549467Y-81709086D01*
X54549460Y-81709090D01*
X54397116Y-81834116D01*
X54272090Y-81986460D01*
X54272086Y-81986467D01*
X54179188Y-82160266D01*
X54121975Y-82348870D01*
X54102659Y-82545000D01*
X53340500Y-82545000D01*
X53340500Y-80005000D01*
X54102659Y-80005000D01*
X54121975Y-80201129D01*
X54121976Y-80201132D01*
X54169445Y-80357617D01*
X54179188Y-80389733D01*
X54272086Y-80563532D01*
X54272090Y-80563539D01*
X54397116Y-80715883D01*
X54549460Y-80840909D01*
X54549467Y-80840913D01*
X54723266Y-80933811D01*
X54723269Y-80933811D01*
X54723273Y-80933814D01*
X54911868Y-80991024D01*
X55108000Y-81010341D01*
X55304132Y-80991024D01*
X55492727Y-80933814D01*
X55666538Y-80840910D01*
X55818883Y-80715883D01*
X55943910Y-80563538D01*
X56036814Y-80389727D01*
X56094024Y-80201132D01*
X56113341Y-80005000D01*
X56094024Y-79808868D01*
X56036814Y-79620273D01*
X56036811Y-79620269D01*
X56036811Y-79620266D01*
X55943913Y-79446467D01*
X55943909Y-79446460D01*
X55818883Y-79294116D01*
X55666539Y-79169090D01*
X55666532Y-79169086D01*
X55492733Y-79076188D01*
X55492727Y-79076186D01*
X55304132Y-79018976D01*
X55304129Y-79018975D01*
X55108000Y-78999659D01*
X54911870Y-79018975D01*
X54723266Y-79076188D01*
X54549467Y-79169086D01*
X54549460Y-79169090D01*
X54397116Y-79294116D01*
X54272090Y-79446460D01*
X54272086Y-79446467D01*
X54179188Y-79620266D01*
X54121975Y-79808870D01*
X54102659Y-80005000D01*
X53340500Y-80005000D01*
X53340500Y-77465000D01*
X54102659Y-77465000D01*
X54121975Y-77661129D01*
X54121976Y-77661132D01*
X54171034Y-77822855D01*
X54179188Y-77849733D01*
X54272086Y-78023532D01*
X54272090Y-78023539D01*
X54397116Y-78175883D01*
X54549460Y-78300909D01*
X54549467Y-78300913D01*
X54723266Y-78393811D01*
X54723269Y-78393811D01*
X54723273Y-78393814D01*
X54911868Y-78451024D01*
X55108000Y-78470341D01*
X55304132Y-78451024D01*
X55492727Y-78393814D01*
X55666538Y-78300910D01*
X55818883Y-78175883D01*
X55943910Y-78023538D01*
X56036814Y-77849727D01*
X56094024Y-77661132D01*
X56113341Y-77465000D01*
X56094024Y-77268868D01*
X56036814Y-77080273D01*
X56036811Y-77080269D01*
X56036811Y-77080266D01*
X55943913Y-76906467D01*
X55943909Y-76906460D01*
X55818883Y-76754116D01*
X55666539Y-76629090D01*
X55666532Y-76629086D01*
X55492733Y-76536188D01*
X55492727Y-76536186D01*
X55304132Y-76478976D01*
X55304129Y-76478975D01*
X55108000Y-76459659D01*
X54911870Y-76478975D01*
X54723266Y-76536188D01*
X54549467Y-76629086D01*
X54549460Y-76629090D01*
X54397116Y-76754116D01*
X54272090Y-76906460D01*
X54272086Y-76906467D01*
X54179188Y-77080266D01*
X54121975Y-77268870D01*
X54102659Y-77465000D01*
X53340500Y-77465000D01*
X53340500Y-74925000D01*
X54102659Y-74925000D01*
X54121975Y-75121129D01*
X54121976Y-75121132D01*
X54178895Y-75308769D01*
X54179188Y-75309733D01*
X54272086Y-75483532D01*
X54272090Y-75483539D01*
X54397116Y-75635883D01*
X54549460Y-75760909D01*
X54549467Y-75760913D01*
X54723266Y-75853811D01*
X54723269Y-75853811D01*
X54723273Y-75853814D01*
X54911868Y-75911024D01*
X55108000Y-75930341D01*
X55304132Y-75911024D01*
X55492727Y-75853814D01*
X55510153Y-75844500D01*
X55616719Y-75787539D01*
X55666538Y-75760910D01*
X55818883Y-75635883D01*
X55943910Y-75483538D01*
X56036814Y-75309727D01*
X56094024Y-75121132D01*
X56113341Y-74925000D01*
X56094024Y-74728868D01*
X56036814Y-74540273D01*
X56036811Y-74540269D01*
X56036811Y-74540266D01*
X55943913Y-74366467D01*
X55943909Y-74366460D01*
X55818883Y-74214116D01*
X55666539Y-74089090D01*
X55666532Y-74089086D01*
X55492733Y-73996188D01*
X55492727Y-73996186D01*
X55304132Y-73938976D01*
X55304129Y-73938975D01*
X55108000Y-73919659D01*
X54911870Y-73938975D01*
X54723266Y-73996188D01*
X54549467Y-74089086D01*
X54549460Y-74089090D01*
X54397116Y-74214116D01*
X54272090Y-74366460D01*
X54272086Y-74366467D01*
X54179188Y-74540266D01*
X54121975Y-74728870D01*
X54102659Y-74925000D01*
X53340500Y-74925000D01*
X53340500Y-72385000D01*
X54102659Y-72385000D01*
X54121975Y-72581129D01*
X54179188Y-72769733D01*
X54272086Y-72943532D01*
X54272090Y-72943539D01*
X54397116Y-73095883D01*
X54549460Y-73220909D01*
X54549467Y-73220913D01*
X54723266Y-73313811D01*
X54723269Y-73313811D01*
X54723273Y-73313814D01*
X54911868Y-73371024D01*
X55108000Y-73390341D01*
X55304132Y-73371024D01*
X55492727Y-73313814D01*
X55666538Y-73220910D01*
X55818883Y-73095883D01*
X55943910Y-72943538D01*
X56036814Y-72769727D01*
X56094024Y-72581132D01*
X56113341Y-72385000D01*
X56094024Y-72188868D01*
X56036814Y-72000273D01*
X56036811Y-72000269D01*
X56036811Y-72000266D01*
X55943913Y-71826467D01*
X55943909Y-71826460D01*
X55818883Y-71674116D01*
X55666539Y-71549090D01*
X55666532Y-71549086D01*
X55492733Y-71456188D01*
X55492727Y-71456186D01*
X55344656Y-71411269D01*
X55304129Y-71398975D01*
X55108000Y-71379659D01*
X54911870Y-71398975D01*
X54723266Y-71456188D01*
X54549467Y-71549086D01*
X54549460Y-71549090D01*
X54397116Y-71674116D01*
X54272090Y-71826460D01*
X54272086Y-71826467D01*
X54179188Y-72000266D01*
X54121975Y-72188870D01*
X54102659Y-72385000D01*
X53340500Y-72385000D01*
X53340500Y-69845000D01*
X54102659Y-69845000D01*
X54121975Y-70041129D01*
X54134820Y-70083474D01*
X54173972Y-70212540D01*
X54179188Y-70229733D01*
X54272086Y-70403532D01*
X54272090Y-70403539D01*
X54397116Y-70555883D01*
X54549460Y-70680909D01*
X54549467Y-70680913D01*
X54723266Y-70773811D01*
X54723269Y-70773811D01*
X54723273Y-70773814D01*
X54911868Y-70831024D01*
X55108000Y-70850341D01*
X55304132Y-70831024D01*
X55492727Y-70773814D01*
X55530261Y-70753752D01*
X55666532Y-70680913D01*
X55666538Y-70680910D01*
X55818883Y-70555883D01*
X55943910Y-70403538D01*
X56036814Y-70229727D01*
X56094024Y-70041132D01*
X56113341Y-69845000D01*
X56094024Y-69648868D01*
X56036814Y-69460273D01*
X56036811Y-69460269D01*
X56036811Y-69460266D01*
X55943913Y-69286467D01*
X55943907Y-69286458D01*
X55818883Y-69134116D01*
X55666539Y-69009090D01*
X55666532Y-69009086D01*
X55492733Y-68916188D01*
X55492727Y-68916186D01*
X55304132Y-68858976D01*
X55304129Y-68858975D01*
X55108000Y-68839659D01*
X54911870Y-68858975D01*
X54723266Y-68916188D01*
X54549467Y-69009086D01*
X54549460Y-69009090D01*
X54397116Y-69134116D01*
X54272093Y-69286458D01*
X54272086Y-69286467D01*
X54179188Y-69460266D01*
X54121975Y-69648870D01*
X54102659Y-69845000D01*
X53340500Y-69845000D01*
X53340500Y-53740752D01*
X54028500Y-53740752D01*
X54040131Y-53799229D01*
X54040132Y-53799230D01*
X54084447Y-53865552D01*
X54150769Y-53909867D01*
X54150770Y-53909868D01*
X54209247Y-53921499D01*
X54209250Y-53921500D01*
X54209252Y-53921500D01*
X54643500Y-53921500D01*
X54710539Y-53941185D01*
X54756294Y-53993989D01*
X54767500Y-54045500D01*
X54767500Y-54184788D01*
X54764861Y-54210232D01*
X54762957Y-54219311D01*
X54762957Y-54219317D01*
X54767023Y-54251937D01*
X54767500Y-54259614D01*
X54767500Y-59322690D01*
X54760781Y-59362954D01*
X54757500Y-59372510D01*
X54757500Y-66180500D01*
X54737815Y-66247539D01*
X54685011Y-66293294D01*
X54633500Y-66304500D01*
X54288247Y-66304500D01*
X54229770Y-66316131D01*
X54229769Y-66316132D01*
X54163447Y-66360447D01*
X54119132Y-66426769D01*
X54119131Y-66426770D01*
X54107500Y-66485247D01*
X54107500Y-68124752D01*
X54119131Y-68183229D01*
X54119132Y-68183230D01*
X54163447Y-68249552D01*
X54229769Y-68293867D01*
X54229770Y-68293868D01*
X54288247Y-68305499D01*
X54288250Y-68305500D01*
X54288252Y-68305500D01*
X55561456Y-68305500D01*
X55628495Y-68325185D01*
X55649137Y-68341819D01*
X56753181Y-69445863D01*
X56786666Y-69507186D01*
X56789500Y-69533544D01*
X56789500Y-87067788D01*
X56786861Y-87093232D01*
X56784957Y-87102311D01*
X56784957Y-87102317D01*
X56789023Y-87134937D01*
X56789500Y-87142614D01*
X56789500Y-87146038D01*
X56793087Y-87167541D01*
X56799427Y-87218393D01*
X56801520Y-87225426D01*
X56803908Y-87232381D01*
X56828295Y-87277444D01*
X56850801Y-87323483D01*
X56855065Y-87329455D01*
X56859580Y-87335256D01*
X56897275Y-87369958D01*
X61683362Y-92156044D01*
X61699489Y-92175902D01*
X61704563Y-92183669D01*
X61704565Y-92183671D01*
X61730505Y-92203860D01*
X61736268Y-92208950D01*
X61738694Y-92211376D01*
X61756441Y-92224047D01*
X61796874Y-92255517D01*
X61796875Y-92255517D01*
X61796876Y-92255518D01*
X61803318Y-92259004D01*
X61809931Y-92262238D01*
X61809934Y-92262240D01*
X61821201Y-92265594D01*
X61859045Y-92276862D01*
X61907506Y-92293498D01*
X61907512Y-92293500D01*
X61907518Y-92293500D01*
X61914768Y-92294710D01*
X61922046Y-92295617D01*
X61973242Y-92293500D01*
X65019012Y-92293500D01*
X65980789Y-92293500D01*
X66006234Y-92296138D01*
X66015315Y-92298043D01*
X66031005Y-92296087D01*
X66047939Y-92293977D01*
X66055615Y-92293500D01*
X66059040Y-92293500D01*
X68257512Y-92293500D01*
X69282789Y-92293500D01*
X69308234Y-92296138D01*
X69317315Y-92298043D01*
X69333005Y-92296087D01*
X69349939Y-92293977D01*
X69357615Y-92293500D01*
X69361040Y-92293500D01*
X73854789Y-92293500D01*
X73880234Y-92296138D01*
X73889315Y-92298043D01*
X73905005Y-92296087D01*
X73921939Y-92293977D01*
X73929615Y-92293500D01*
X73933035Y-92293500D01*
X73933040Y-92293500D01*
X73936608Y-92292904D01*
X73954539Y-92289913D01*
X73981958Y-92286494D01*
X74005393Y-92283573D01*
X74005402Y-92283568D01*
X74012451Y-92281470D01*
X74019377Y-92279092D01*
X74019381Y-92279092D01*
X74064444Y-92254704D01*
X74110484Y-92232198D01*
X74110487Y-92232194D01*
X74116453Y-92227935D01*
X74122254Y-92223419D01*
X74122258Y-92223418D01*
X74156957Y-92185724D01*
X75133046Y-91209634D01*
X75152902Y-91193511D01*
X75160669Y-91188437D01*
X75180873Y-91162477D01*
X75185941Y-91156739D01*
X75188375Y-91154307D01*
X75201044Y-91136561D01*
X75232517Y-91096126D01*
X75232518Y-91096120D01*
X75236017Y-91089655D01*
X75239235Y-91083072D01*
X75239240Y-91083066D01*
X75253861Y-91033954D01*
X75270500Y-90985488D01*
X75270500Y-90985479D01*
X75271706Y-90978256D01*
X75272617Y-90970952D01*
X75270500Y-90919768D01*
X75270500Y-71672211D01*
X75273139Y-71646764D01*
X75273404Y-71645499D01*
X75275043Y-71637685D01*
X75272459Y-71616956D01*
X75270977Y-71605061D01*
X75270500Y-71597385D01*
X75270500Y-71593960D01*
X75266912Y-71572458D01*
X75260775Y-71523231D01*
X75260573Y-71521607D01*
X75260571Y-71521603D01*
X75258502Y-71514653D01*
X75258470Y-71514559D01*
X75258446Y-71514478D01*
X75256092Y-71507622D01*
X75256092Y-71507619D01*
X75231702Y-71462550D01*
X75209198Y-71416517D01*
X75209197Y-71416516D01*
X75209197Y-71416515D01*
X75204926Y-71410534D01*
X75200417Y-71404741D01*
X75162712Y-71370030D01*
X74267819Y-70475137D01*
X74234334Y-70413814D01*
X74231500Y-70387456D01*
X74231500Y-68936249D01*
X74231499Y-68936247D01*
X74219868Y-68877770D01*
X74219867Y-68877769D01*
X74175552Y-68811447D01*
X74109230Y-68767132D01*
X74109229Y-68767131D01*
X74050752Y-68755500D01*
X74050748Y-68755500D01*
X72486543Y-68755500D01*
X72419504Y-68735815D01*
X72373749Y-68683011D01*
X72363805Y-68613853D01*
X72392830Y-68550297D01*
X72398862Y-68543819D01*
X72484500Y-68458181D01*
X72599991Y-68342689D01*
X72661312Y-68309206D01*
X72731003Y-68314190D01*
X72732450Y-68314739D01*
X72842567Y-68357399D01*
X73041043Y-68394500D01*
X73041046Y-68394500D01*
X73242954Y-68394500D01*
X73242957Y-68394500D01*
X73441433Y-68357399D01*
X73629713Y-68284459D01*
X73801384Y-68178165D01*
X73950600Y-68042136D01*
X74072280Y-67881005D01*
X74133303Y-67758455D01*
X74162280Y-67700262D01*
X74162281Y-67700259D01*
X74217538Y-67506053D01*
X74236168Y-67305000D01*
X74217538Y-67103947D01*
X74162281Y-66909741D01*
X74159054Y-66903261D01*
X74146792Y-66834478D01*
X74173664Y-66769982D01*
X74182363Y-66760317D01*
X75133046Y-65809634D01*
X75152902Y-65793511D01*
X75160669Y-65788437D01*
X75180873Y-65762477D01*
X75185941Y-65756739D01*
X75188376Y-65754306D01*
X75192162Y-65749002D01*
X75201048Y-65736558D01*
X75232513Y-65696131D01*
X75232512Y-65696131D01*
X75232517Y-65696126D01*
X75232519Y-65696119D01*
X75235982Y-65689718D01*
X75236021Y-65689640D01*
X75236063Y-65689561D01*
X75239235Y-65683072D01*
X75239240Y-65683066D01*
X75252607Y-65638166D01*
X75253861Y-65633955D01*
X75260961Y-65613273D01*
X75270500Y-65585488D01*
X75270500Y-65585479D01*
X75271706Y-65578258D01*
X75272617Y-65570951D01*
X75270500Y-65519758D01*
X75270500Y-61766211D01*
X75273139Y-61740764D01*
X75275043Y-61731685D01*
X75273270Y-61717463D01*
X75270977Y-61699061D01*
X75270500Y-61691385D01*
X75270500Y-61687960D01*
X75266912Y-61666458D01*
X75261081Y-61619685D01*
X75260573Y-61615607D01*
X75260571Y-61615603D01*
X75258502Y-61608653D01*
X75258470Y-61608559D01*
X75258446Y-61608478D01*
X75256092Y-61601622D01*
X75256092Y-61601619D01*
X75231702Y-61556550D01*
X75209198Y-61510517D01*
X75209197Y-61510516D01*
X75209197Y-61510515D01*
X75204926Y-61504534D01*
X75200417Y-61498741D01*
X75162712Y-61464030D01*
X74707224Y-61008542D01*
X74673739Y-60947219D01*
X74675638Y-60886928D01*
X74725538Y-60711553D01*
X74744168Y-60510500D01*
X74725538Y-60309447D01*
X74700461Y-60221313D01*
X74670280Y-60115237D01*
X74585343Y-59944663D01*
X74580280Y-59934495D01*
X74458600Y-59773364D01*
X74458597Y-59773361D01*
X74458593Y-59773357D01*
X74309384Y-59637335D01*
X74309382Y-59637333D01*
X74137716Y-59531042D01*
X74137710Y-59531039D01*
X74090923Y-59512914D01*
X74079705Y-59508568D01*
X74024305Y-59465996D01*
X74000714Y-59400229D01*
X74000500Y-59392942D01*
X74000500Y-57818057D01*
X74020185Y-57751018D01*
X74072989Y-57705263D01*
X74079695Y-57702434D01*
X74137713Y-57679959D01*
X74309384Y-57573665D01*
X74458600Y-57437636D01*
X74580280Y-57276505D01*
X74670281Y-57095759D01*
X74725538Y-56901553D01*
X74744168Y-56700500D01*
X74725538Y-56499447D01*
X74696583Y-56397683D01*
X74670280Y-56305237D01*
X74600321Y-56164743D01*
X74580280Y-56124495D01*
X74458600Y-55963364D01*
X74458597Y-55963361D01*
X74458593Y-55963357D01*
X74309384Y-55827335D01*
X74309382Y-55827333D01*
X74137716Y-55721042D01*
X74137710Y-55721039D01*
X73949436Y-55648102D01*
X73949435Y-55648101D01*
X73949433Y-55648101D01*
X73750957Y-55611000D01*
X73549043Y-55611000D01*
X73350567Y-55648101D01*
X73350565Y-55648101D01*
X73350563Y-55648102D01*
X73162289Y-55721039D01*
X73162283Y-55721042D01*
X72990617Y-55827333D01*
X72990615Y-55827335D01*
X72841406Y-55963357D01*
X72841402Y-55963361D01*
X72719720Y-56124494D01*
X72629719Y-56305237D01*
X72574461Y-56499447D01*
X72555832Y-56700499D01*
X72555832Y-56700500D01*
X72574461Y-56901552D01*
X72629719Y-57095762D01*
X72719720Y-57276505D01*
X72841402Y-57437638D01*
X72841406Y-57437642D01*
X72990615Y-57573664D01*
X72990617Y-57573666D01*
X73048088Y-57609250D01*
X73162287Y-57679959D01*
X73220294Y-57702430D01*
X73275695Y-57745002D01*
X73299286Y-57810769D01*
X73299500Y-57818057D01*
X73299500Y-59392942D01*
X73279815Y-59459981D01*
X73227011Y-59505736D01*
X73220299Y-59508566D01*
X73212123Y-59511734D01*
X73162289Y-59531039D01*
X73162283Y-59531042D01*
X72990617Y-59637333D01*
X72990615Y-59637335D01*
X72841406Y-59773357D01*
X72841402Y-59773361D01*
X72719720Y-59934494D01*
X72629719Y-60115237D01*
X72574461Y-60309447D01*
X72555832Y-60510499D01*
X72555832Y-60510500D01*
X72574461Y-60711552D01*
X72616160Y-60858105D01*
X72624360Y-60886926D01*
X72629720Y-60905762D01*
X72629722Y-60905768D01*
X72632948Y-60912247D01*
X72645204Y-60981033D01*
X72618326Y-61045526D01*
X72609625Y-61055191D01*
X72411181Y-61253636D01*
X72349858Y-61287121D01*
X72280167Y-61282137D01*
X72224233Y-61240266D01*
X72199816Y-61174801D01*
X72199500Y-61165955D01*
X72199500Y-59601749D01*
X72199499Y-59601747D01*
X72187868Y-59543270D01*
X72187867Y-59543269D01*
X72143552Y-59476947D01*
X72077230Y-59432632D01*
X72077229Y-59432631D01*
X72018752Y-59421000D01*
X72018748Y-59421000D01*
X71584500Y-59421000D01*
X71517461Y-59401315D01*
X71471706Y-59348511D01*
X71460500Y-59297000D01*
X71460500Y-57914000D01*
X71480185Y-57846961D01*
X71532989Y-57801206D01*
X71584500Y-57790000D01*
X72018750Y-57790000D01*
X72018751Y-57789999D01*
X72033568Y-57787052D01*
X72077229Y-57778368D01*
X72077229Y-57778367D01*
X72077231Y-57778367D01*
X72143552Y-57734052D01*
X72187867Y-57667731D01*
X72187867Y-57667729D01*
X72187868Y-57667729D01*
X72199499Y-57609252D01*
X72199500Y-57609250D01*
X72199500Y-55791749D01*
X72199499Y-55791747D01*
X72187868Y-55733270D01*
X72187867Y-55733269D01*
X72143552Y-55666947D01*
X72077230Y-55622632D01*
X72077229Y-55622631D01*
X72018752Y-55611000D01*
X72018748Y-55611000D01*
X71584500Y-55611000D01*
X71517461Y-55591315D01*
X71471706Y-55538511D01*
X71460500Y-55487000D01*
X71460500Y-54547543D01*
X71480185Y-54480504D01*
X71496819Y-54459862D01*
X72679362Y-53277319D01*
X72740685Y-53243834D01*
X72767043Y-53241000D01*
X72848154Y-53241000D01*
X72915193Y-53260685D01*
X72959154Y-53309728D01*
X73037220Y-53466505D01*
X73046468Y-53478752D01*
X73158902Y-53627638D01*
X73158906Y-53627642D01*
X73308115Y-53763664D01*
X73308117Y-53763666D01*
X73479783Y-53869957D01*
X73479789Y-53869960D01*
X73496676Y-53876502D01*
X73668067Y-53942899D01*
X73866543Y-53980000D01*
X73866546Y-53980000D01*
X74068454Y-53980000D01*
X74068457Y-53980000D01*
X74266933Y-53942899D01*
X74455213Y-53869959D01*
X74626884Y-53763665D01*
X74776100Y-53627636D01*
X74897780Y-53466505D01*
X74975846Y-53309728D01*
X74987780Y-53285762D01*
X75043038Y-53091552D01*
X75061668Y-52890500D01*
X75061668Y-52890499D01*
X75043038Y-52689447D01*
X74987780Y-52495237D01*
X74928027Y-52375239D01*
X74897780Y-52314495D01*
X74776100Y-52153364D01*
X74776097Y-52153361D01*
X74776093Y-52153357D01*
X74626884Y-52017335D01*
X74626882Y-52017333D01*
X74455216Y-51911042D01*
X74455210Y-51911039D01*
X74266936Y-51838102D01*
X74266935Y-51838101D01*
X74266933Y-51838101D01*
X74068457Y-51801000D01*
X73866543Y-51801000D01*
X73668067Y-51838101D01*
X73668065Y-51838101D01*
X73668063Y-51838102D01*
X73479789Y-51911039D01*
X73479783Y-51911042D01*
X73308117Y-52017333D01*
X73308115Y-52017335D01*
X73158906Y-52153357D01*
X73158902Y-52153361D01*
X73037220Y-52314494D01*
X72959154Y-52471272D01*
X72911651Y-52522509D01*
X72848154Y-52540000D01*
X72619711Y-52540000D01*
X72594265Y-52537361D01*
X72585185Y-52535457D01*
X72585184Y-52535457D01*
X72585182Y-52535457D01*
X72552561Y-52539523D01*
X72544885Y-52540000D01*
X72541460Y-52540000D01*
X72519957Y-52543587D01*
X72469108Y-52549926D01*
X72462070Y-52552021D01*
X72455122Y-52554406D01*
X72410055Y-52578795D01*
X72364012Y-52601303D01*
X72358066Y-52605548D01*
X72352242Y-52610081D01*
X72317542Y-52647775D01*
X70896955Y-54068361D01*
X70877106Y-54084482D01*
X70869331Y-54089562D01*
X70849143Y-54115498D01*
X70844067Y-54121248D01*
X70841634Y-54123681D01*
X70841623Y-54123694D01*
X70828954Y-54141438D01*
X70797483Y-54181872D01*
X70793975Y-54188353D01*
X70790760Y-54194932D01*
X70776138Y-54244045D01*
X70759498Y-54292516D01*
X70758294Y-54299733D01*
X70757382Y-54307046D01*
X70759500Y-54358230D01*
X70759500Y-55487000D01*
X70739815Y-55554039D01*
X70687011Y-55599794D01*
X70635500Y-55611000D01*
X70201247Y-55611000D01*
X70142770Y-55622631D01*
X70142769Y-55622632D01*
X70076447Y-55666947D01*
X70032132Y-55733269D01*
X70032131Y-55733270D01*
X70020500Y-55791747D01*
X70020500Y-57609252D01*
X70032131Y-57667729D01*
X70032132Y-57667730D01*
X70076447Y-57734052D01*
X70142769Y-57778367D01*
X70142770Y-57778368D01*
X70201247Y-57789999D01*
X70201250Y-57790000D01*
X70201252Y-57790000D01*
X70635500Y-57790000D01*
X70702539Y-57809685D01*
X70748294Y-57862489D01*
X70759500Y-57914000D01*
X70759500Y-59297000D01*
X70739815Y-59364039D01*
X70687011Y-59409794D01*
X70635500Y-59421000D01*
X70201247Y-59421000D01*
X70142770Y-59432631D01*
X70142769Y-59432632D01*
X70076447Y-59476947D01*
X70032132Y-59543269D01*
X70032131Y-59543270D01*
X70020500Y-59601747D01*
X70020500Y-61419252D01*
X70032131Y-61477729D01*
X70032132Y-61477730D01*
X70076447Y-61544052D01*
X70142769Y-61588367D01*
X70142770Y-61588368D01*
X70201247Y-61599999D01*
X70201250Y-61600000D01*
X71765455Y-61600000D01*
X71832494Y-61619685D01*
X71878249Y-61672489D01*
X71888193Y-61741647D01*
X71859168Y-61805203D01*
X71853136Y-61811681D01*
X67848955Y-65815861D01*
X67829106Y-65831982D01*
X67821331Y-65837062D01*
X67801143Y-65862998D01*
X67796067Y-65868748D01*
X67793634Y-65871181D01*
X67793623Y-65871194D01*
X67780954Y-65888938D01*
X67749483Y-65929372D01*
X67745975Y-65935853D01*
X67742760Y-65942432D01*
X67728138Y-65991545D01*
X67711498Y-66040016D01*
X67710294Y-66047233D01*
X67709382Y-66054546D01*
X67711500Y-66105730D01*
X67711500Y-68051292D01*
X67691815Y-68118331D01*
X67653473Y-68156285D01*
X67559741Y-68215181D01*
X67559739Y-68215182D01*
X67432184Y-68342737D01*
X67373287Y-68436472D01*
X67320952Y-68482763D01*
X67268293Y-68494500D01*
X64464544Y-68494500D01*
X64397505Y-68474815D01*
X64376863Y-68458181D01*
X63698102Y-67779420D01*
X63664617Y-67718097D01*
X63667123Y-67655743D01*
X63712531Y-67506053D01*
X63714024Y-67501132D01*
X63733341Y-67305000D01*
X63714024Y-67108868D01*
X63656814Y-66920273D01*
X63656811Y-66920269D01*
X63656811Y-66920266D01*
X63563913Y-66746467D01*
X63563909Y-66746460D01*
X63438883Y-66594116D01*
X63286539Y-66469090D01*
X63286532Y-66469086D01*
X63144047Y-66392926D01*
X63094203Y-66343964D01*
X63078500Y-66283568D01*
X63078500Y-65978944D01*
X63098185Y-65911905D01*
X63114814Y-65891267D01*
X64179846Y-64826235D01*
X64241167Y-64792752D01*
X64308477Y-64796875D01*
X64316745Y-64799769D01*
X64316748Y-64799769D01*
X64316750Y-64799770D01*
X64495996Y-64819966D01*
X64496000Y-64819966D01*
X64496004Y-64819966D01*
X64675249Y-64799770D01*
X64675252Y-64799769D01*
X64675255Y-64799769D01*
X64845522Y-64740190D01*
X64998262Y-64644217D01*
X65125816Y-64516663D01*
X65221789Y-64363923D01*
X65281368Y-64193656D01*
X65281893Y-64188995D01*
X65301565Y-64014404D01*
X65301565Y-64014397D01*
X65281369Y-63835151D01*
X65281368Y-63835149D01*
X65281368Y-63835146D01*
X65278474Y-63826878D01*
X65274914Y-63757101D01*
X65307834Y-63698247D01*
X66243046Y-62763035D01*
X66262902Y-62746912D01*
X66270669Y-62741838D01*
X66290873Y-62715878D01*
X66295941Y-62710140D01*
X66298376Y-62707707D01*
X66309139Y-62692632D01*
X66311048Y-62689959D01*
X66342513Y-62649532D01*
X66342512Y-62649532D01*
X66342517Y-62649527D01*
X66342519Y-62649520D01*
X66345982Y-62643119D01*
X66346021Y-62643041D01*
X66346058Y-62642971D01*
X66349233Y-62636475D01*
X66349240Y-62636467D01*
X66363860Y-62587357D01*
X66380500Y-62538889D01*
X66380500Y-62538885D01*
X66381692Y-62531742D01*
X66381701Y-62531672D01*
X66381714Y-62531594D01*
X66382617Y-62524351D01*
X66380500Y-62473158D01*
X66380500Y-61015607D01*
X66383139Y-60990161D01*
X66385042Y-60981086D01*
X66382782Y-60962962D01*
X66380977Y-60948469D01*
X66380500Y-60940792D01*
X66380500Y-60937364D01*
X66380498Y-60937351D01*
X66376910Y-60915850D01*
X66375653Y-60905768D01*
X66370573Y-60865008D01*
X66370572Y-60865005D01*
X66368518Y-60858105D01*
X66368475Y-60857980D01*
X66368437Y-60857854D01*
X66366092Y-60851019D01*
X66341704Y-60805956D01*
X66319199Y-60759919D01*
X66314919Y-60753925D01*
X66310419Y-60748144D01*
X66272724Y-60713442D01*
X65317836Y-59758555D01*
X65284351Y-59697232D01*
X65288477Y-59629915D01*
X65291368Y-59621656D01*
X65308907Y-59465996D01*
X65311565Y-59442404D01*
X65311565Y-59442397D01*
X65291369Y-59263151D01*
X65291368Y-59263149D01*
X65291368Y-59263146D01*
X65288474Y-59254878D01*
X65284914Y-59185101D01*
X65317834Y-59126247D01*
X66243046Y-58201035D01*
X66262902Y-58184912D01*
X66270669Y-58179838D01*
X66290873Y-58153878D01*
X66295941Y-58148140D01*
X66298375Y-58145708D01*
X66311044Y-58127963D01*
X66342517Y-58087527D01*
X66342518Y-58087521D01*
X66346017Y-58081057D01*
X66349235Y-58074472D01*
X66349239Y-58074468D01*
X66363858Y-58025363D01*
X66380500Y-57976889D01*
X66380500Y-57976882D01*
X66381706Y-57969657D01*
X66382617Y-57962353D01*
X66380500Y-57911171D01*
X66380500Y-56432206D01*
X66383139Y-56406760D01*
X66385042Y-56397685D01*
X66382782Y-56379561D01*
X66380977Y-56365068D01*
X66380500Y-56357391D01*
X66380500Y-56353963D01*
X66380498Y-56353950D01*
X66376910Y-56332449D01*
X66370573Y-56281607D01*
X66370572Y-56281604D01*
X66368518Y-56274704D01*
X66368475Y-56274579D01*
X66368437Y-56274453D01*
X66366092Y-56267618D01*
X66341704Y-56222555D01*
X66319199Y-56176518D01*
X66314919Y-56170524D01*
X66310419Y-56164743D01*
X66272724Y-56130041D01*
X65317836Y-55175154D01*
X65284351Y-55113831D01*
X65288477Y-55046514D01*
X65291368Y-55038255D01*
X65311565Y-54859000D01*
X65291368Y-54679745D01*
X65231789Y-54509478D01*
X65231174Y-54508500D01*
X65137839Y-54359958D01*
X65135816Y-54356738D01*
X65008262Y-54229184D01*
X64978100Y-54210232D01*
X64855523Y-54133211D01*
X64685254Y-54073631D01*
X64685249Y-54073630D01*
X64506004Y-54053435D01*
X64505996Y-54053435D01*
X64326750Y-54073630D01*
X64326745Y-54073631D01*
X64156476Y-54133211D01*
X64003737Y-54229184D01*
X63876184Y-54356737D01*
X63817287Y-54450472D01*
X63764952Y-54496763D01*
X63712293Y-54508500D01*
X58606543Y-54508500D01*
X58539504Y-54488815D01*
X58518862Y-54472181D01*
X58073002Y-54026320D01*
X58039517Y-53964997D01*
X58044501Y-53895305D01*
X58086373Y-53839372D01*
X58115891Y-53823012D01*
X58145705Y-53811462D01*
X58145704Y-53811462D01*
X58145713Y-53811459D01*
X58317384Y-53705165D01*
X58466600Y-53569136D01*
X58588280Y-53408005D01*
X58678281Y-53227259D01*
X58733538Y-53033053D01*
X58752168Y-52832000D01*
X59103832Y-52832000D01*
X59122461Y-53033052D01*
X59177719Y-53227262D01*
X59246306Y-53365000D01*
X59267720Y-53408005D01*
X59321145Y-53478752D01*
X59389402Y-53569138D01*
X59389406Y-53569142D01*
X59538615Y-53705164D01*
X59538617Y-53705166D01*
X59710283Y-53811457D01*
X59710289Y-53811460D01*
X59768291Y-53833930D01*
X59898567Y-53884399D01*
X60097043Y-53921500D01*
X60097046Y-53921500D01*
X60298954Y-53921500D01*
X60298957Y-53921500D01*
X60497433Y-53884399D01*
X60685713Y-53811459D01*
X60857384Y-53705165D01*
X61006600Y-53569136D01*
X61128280Y-53408005D01*
X61165379Y-53333500D01*
X61192901Y-53278229D01*
X61240404Y-53226991D01*
X61303901Y-53209500D01*
X63581500Y-53209500D01*
X63648539Y-53229185D01*
X63694294Y-53281989D01*
X63705500Y-53333500D01*
X63705500Y-53478752D01*
X63717131Y-53537229D01*
X63717132Y-53537230D01*
X63761447Y-53603552D01*
X63827769Y-53647867D01*
X63827770Y-53647868D01*
X63886247Y-53659499D01*
X63886250Y-53659500D01*
X63886252Y-53659500D01*
X65125750Y-53659500D01*
X65125751Y-53659499D01*
X65140568Y-53656552D01*
X65184229Y-53647868D01*
X65184229Y-53647867D01*
X65184231Y-53647867D01*
X65250552Y-53603552D01*
X65294867Y-53537231D01*
X65294867Y-53537229D01*
X65294868Y-53537229D01*
X65306499Y-53478752D01*
X65306500Y-53478750D01*
X65306500Y-53365000D01*
X65326185Y-53297961D01*
X65378989Y-53252206D01*
X65430500Y-53241000D01*
X67674000Y-53241000D01*
X67741039Y-53260685D01*
X67786794Y-53313489D01*
X67798000Y-53365000D01*
X67798000Y-53799252D01*
X67809631Y-53857729D01*
X67809632Y-53857730D01*
X67853947Y-53924052D01*
X67920269Y-53968367D01*
X67920270Y-53968368D01*
X67978747Y-53979999D01*
X67978750Y-53980000D01*
X67978752Y-53980000D01*
X69796250Y-53980000D01*
X69796251Y-53979999D01*
X69811068Y-53977052D01*
X69854729Y-53968368D01*
X69854729Y-53968367D01*
X69854731Y-53968367D01*
X69921052Y-53924052D01*
X69965367Y-53857731D01*
X69965367Y-53857729D01*
X69965368Y-53857729D01*
X69976999Y-53799252D01*
X69977000Y-53799250D01*
X69977000Y-51981749D01*
X69976999Y-51981747D01*
X69965368Y-51923270D01*
X69965367Y-51923269D01*
X69921052Y-51856947D01*
X69854730Y-51812632D01*
X69854729Y-51812631D01*
X69796252Y-51801000D01*
X69796248Y-51801000D01*
X67978752Y-51801000D01*
X67978747Y-51801000D01*
X67920270Y-51812631D01*
X67920269Y-51812632D01*
X67853947Y-51856947D01*
X67809632Y-51923269D01*
X67809631Y-51923270D01*
X67798000Y-51981747D01*
X67798000Y-52416000D01*
X67778315Y-52483039D01*
X67725511Y-52528794D01*
X67674000Y-52540000D01*
X65430500Y-52540000D01*
X65363461Y-52520315D01*
X65317706Y-52467511D01*
X65306500Y-52416000D01*
X65306500Y-52239249D01*
X65306499Y-52239247D01*
X65294868Y-52180770D01*
X65294867Y-52180769D01*
X65250552Y-52114447D01*
X65184230Y-52070132D01*
X65184229Y-52070131D01*
X65125752Y-52058500D01*
X65125748Y-52058500D01*
X63886252Y-52058500D01*
X63886247Y-52058500D01*
X63827770Y-52070131D01*
X63827769Y-52070132D01*
X63761447Y-52114447D01*
X63717132Y-52180769D01*
X63717131Y-52180770D01*
X63705500Y-52239247D01*
X63705500Y-52384500D01*
X63685815Y-52451539D01*
X63633011Y-52497294D01*
X63581500Y-52508500D01*
X61330791Y-52508500D01*
X61263752Y-52488815D01*
X61219791Y-52439772D01*
X61165322Y-52330386D01*
X61128280Y-52255995D01*
X61006600Y-52094864D01*
X61006597Y-52094861D01*
X61006593Y-52094857D01*
X60857384Y-51958835D01*
X60857382Y-51958833D01*
X60685716Y-51852542D01*
X60685710Y-51852539D01*
X60497436Y-51779602D01*
X60497435Y-51779601D01*
X60497433Y-51779601D01*
X60298957Y-51742500D01*
X60097043Y-51742500D01*
X59898567Y-51779601D01*
X59898565Y-51779601D01*
X59898563Y-51779602D01*
X59710289Y-51852539D01*
X59710283Y-51852542D01*
X59538617Y-51958833D01*
X59538615Y-51958835D01*
X59389406Y-52094857D01*
X59389402Y-52094861D01*
X59267720Y-52255994D01*
X59177719Y-52436737D01*
X59122461Y-52630947D01*
X59103832Y-52831999D01*
X59103832Y-52832000D01*
X58752168Y-52832000D01*
X58733538Y-52630947D01*
X58706910Y-52537361D01*
X58678280Y-52436737D01*
X58617409Y-52314494D01*
X58588280Y-52255995D01*
X58466600Y-52094864D01*
X58466597Y-52094861D01*
X58466593Y-52094857D01*
X58317384Y-51958835D01*
X58317382Y-51958833D01*
X58145716Y-51852542D01*
X58145710Y-51852539D01*
X57957436Y-51779602D01*
X57957435Y-51779601D01*
X57957433Y-51779601D01*
X57758957Y-51742500D01*
X57557043Y-51742500D01*
X57358567Y-51779601D01*
X57358565Y-51779601D01*
X57358563Y-51779602D01*
X57170289Y-51852539D01*
X57170283Y-51852542D01*
X56998617Y-51958833D01*
X56998615Y-51958835D01*
X56849406Y-52094857D01*
X56849402Y-52094861D01*
X56727720Y-52255994D01*
X56637719Y-52436737D01*
X56582461Y-52630947D01*
X56563832Y-52831999D01*
X56563832Y-52832000D01*
X56582461Y-53033052D01*
X56637719Y-53227262D01*
X56706306Y-53365000D01*
X56727720Y-53408005D01*
X56781145Y-53478752D01*
X56849402Y-53569138D01*
X56849406Y-53569142D01*
X56998615Y-53705164D01*
X56998617Y-53705166D01*
X57096807Y-53765962D01*
X57170287Y-53811459D01*
X57228294Y-53833930D01*
X57283695Y-53876502D01*
X57307286Y-53942269D01*
X57307500Y-53949557D01*
X57307500Y-54057788D01*
X57304861Y-54083232D01*
X57302957Y-54092311D01*
X57302957Y-54092317D01*
X57307023Y-54124937D01*
X57307500Y-54132614D01*
X57307500Y-54136038D01*
X57311087Y-54157541D01*
X57317427Y-54208393D01*
X57319520Y-54215426D01*
X57321908Y-54222381D01*
X57346295Y-54267444D01*
X57368801Y-54313483D01*
X57373065Y-54319455D01*
X57377580Y-54325256D01*
X57415275Y-54359958D01*
X58127362Y-55072044D01*
X58143489Y-55091902D01*
X58148563Y-55099669D01*
X58148565Y-55099671D01*
X58174505Y-55119860D01*
X58180268Y-55124950D01*
X58182694Y-55127376D01*
X58200441Y-55140047D01*
X58240874Y-55171517D01*
X58240875Y-55171517D01*
X58240876Y-55171518D01*
X58247332Y-55175012D01*
X58253930Y-55178238D01*
X58253932Y-55178238D01*
X58253934Y-55178240D01*
X58289832Y-55188927D01*
X58303042Y-55192860D01*
X58315160Y-55197020D01*
X58351512Y-55209500D01*
X58351515Y-55209500D01*
X58358754Y-55210708D01*
X58366047Y-55211617D01*
X58417242Y-55209500D01*
X63712293Y-55209500D01*
X63779332Y-55229185D01*
X63817287Y-55267528D01*
X63876184Y-55361262D01*
X64003738Y-55488816D01*
X64156478Y-55584789D01*
X64264627Y-55622632D01*
X64326745Y-55644368D01*
X64326750Y-55644369D01*
X64505996Y-55664565D01*
X64506000Y-55664565D01*
X64506004Y-55664565D01*
X64685247Y-55644369D01*
X64685247Y-55644368D01*
X64685255Y-55644368D01*
X64693514Y-55641477D01*
X64763290Y-55637912D01*
X64822154Y-55670836D01*
X65643181Y-56491863D01*
X65676666Y-56553186D01*
X65679500Y-56579544D01*
X65679500Y-57721856D01*
X65659815Y-57788895D01*
X65643181Y-57809537D01*
X65518181Y-57934537D01*
X65456858Y-57968022D01*
X65387166Y-57963038D01*
X65331233Y-57921166D01*
X65306816Y-57855702D01*
X65306500Y-57846856D01*
X65306500Y-56822650D01*
X65306499Y-56822648D01*
X65294868Y-56764171D01*
X65294867Y-56764170D01*
X65250552Y-56697848D01*
X65184230Y-56653533D01*
X65184229Y-56653532D01*
X65125752Y-56641901D01*
X65125748Y-56641901D01*
X63886252Y-56641901D01*
X63886247Y-56641901D01*
X63827770Y-56653532D01*
X63827769Y-56653533D01*
X63761447Y-56697848D01*
X63717132Y-56764170D01*
X63717131Y-56764171D01*
X63705500Y-56822648D01*
X63705500Y-56967901D01*
X63685815Y-57034940D01*
X63633011Y-57080695D01*
X63581500Y-57091901D01*
X58522945Y-57091901D01*
X58455906Y-57072216D01*
X58435264Y-57055582D01*
X55512863Y-54133181D01*
X55479378Y-54071858D01*
X55484362Y-54002166D01*
X55526234Y-53946233D01*
X55591698Y-53921816D01*
X55600544Y-53921500D01*
X56026750Y-53921500D01*
X56026751Y-53921499D01*
X56041568Y-53918552D01*
X56085229Y-53909868D01*
X56085229Y-53909867D01*
X56085231Y-53909867D01*
X56151552Y-53865552D01*
X56195867Y-53799231D01*
X56195867Y-53799229D01*
X56195868Y-53799229D01*
X56207499Y-53740752D01*
X56207500Y-53740750D01*
X56207500Y-51923249D01*
X56207499Y-51923247D01*
X56195868Y-51864770D01*
X56195867Y-51864769D01*
X56151552Y-51798447D01*
X56085230Y-51754132D01*
X56085229Y-51754131D01*
X56026752Y-51742500D01*
X56026748Y-51742500D01*
X54209252Y-51742500D01*
X54209247Y-51742500D01*
X54150770Y-51754131D01*
X54150769Y-51754132D01*
X54084447Y-51798447D01*
X54040132Y-51864769D01*
X54040131Y-51864770D01*
X54028500Y-51923247D01*
X54028500Y-53740752D01*
X53340500Y-53740752D01*
X53340500Y-50924500D01*
X53360185Y-50857461D01*
X53412989Y-50811706D01*
X53464500Y-50800500D01*
X75558000Y-50800500D01*
X75625039Y-50820185D01*
G37*
%TD.AperFunction*%
%TA.AperFunction,NonConductor*%
G36*
X67510227Y-76838854D02*
G01*
X67625810Y-76947901D01*
X67625809Y-76947901D01*
X67649498Y-76961577D01*
X67697715Y-77012143D01*
X67711500Y-77068965D01*
X67711500Y-77923788D01*
X67708861Y-77949232D01*
X67706957Y-77958311D01*
X67706956Y-77958320D01*
X67709368Y-77977665D01*
X67698126Y-78046625D01*
X67651386Y-78098559D01*
X67583988Y-78116979D01*
X67517331Y-78096037D01*
X67498639Y-78080682D01*
X67153819Y-77735862D01*
X67120334Y-77674539D01*
X67117500Y-77648181D01*
X67117500Y-77086423D01*
X67137185Y-77019384D01*
X67167449Y-76986962D01*
X67293258Y-76893302D01*
X67330145Y-76849341D01*
X67388314Y-76810640D01*
X67458175Y-76809531D01*
X67510227Y-76838854D01*
G37*
%TD.AperFunction*%
%TA.AperFunction,NonConductor*%
G36*
X69746994Y-78851185D02*
G01*
X69792749Y-78903989D01*
X69802693Y-78973147D01*
X69773668Y-79036703D01*
X69715951Y-79074160D01*
X69709271Y-79076186D01*
X69535467Y-79169086D01*
X69535460Y-79169090D01*
X69383116Y-79294116D01*
X69258090Y-79446460D01*
X69258085Y-79446467D01*
X69199778Y-79555554D01*
X69150816Y-79605399D01*
X69082678Y-79620859D01*
X69016998Y-79597027D01*
X69002739Y-79584782D01*
X68462368Y-79044411D01*
X68428883Y-78983088D01*
X68433867Y-78913396D01*
X68475739Y-78857463D01*
X68541203Y-78833046D01*
X68544917Y-78832836D01*
X68577231Y-78831500D01*
X69679955Y-78831500D01*
X69746994Y-78851185D01*
G37*
%TD.AperFunction*%
%TA.AperFunction,NonConductor*%
G36*
X74236665Y-61529360D02*
G01*
X74237777Y-61530459D01*
X74533181Y-61825863D01*
X74566666Y-61887186D01*
X74569500Y-61913544D01*
X74569500Y-65330456D01*
X74549815Y-65397495D01*
X74533181Y-65418137D01*
X73684009Y-66267308D01*
X73622686Y-66300793D01*
X73552994Y-66295809D01*
X73551534Y-66295254D01*
X73441436Y-66252602D01*
X73441435Y-66252601D01*
X73441433Y-66252601D01*
X73242957Y-66215500D01*
X73041043Y-66215500D01*
X72842567Y-66252601D01*
X72842565Y-66252601D01*
X72842563Y-66252602D01*
X72654289Y-66325539D01*
X72654283Y-66325542D01*
X72482617Y-66431833D01*
X72482615Y-66431835D01*
X72333406Y-66567857D01*
X72333402Y-66567861D01*
X72211720Y-66728994D01*
X72121719Y-66909737D01*
X72066461Y-67103947D01*
X72047832Y-67304999D01*
X72047832Y-67305000D01*
X72066461Y-67506052D01*
X72121716Y-67700250D01*
X72121720Y-67700261D01*
X72124948Y-67706743D01*
X72137206Y-67775529D01*
X72110330Y-67840023D01*
X72101626Y-67849691D01*
X71150955Y-68800361D01*
X71131106Y-68816482D01*
X71123331Y-68821562D01*
X71103143Y-68847498D01*
X71098067Y-68853248D01*
X71095634Y-68855681D01*
X71095623Y-68855694D01*
X71082954Y-68873438D01*
X71051483Y-68913872D01*
X71047975Y-68920353D01*
X71044760Y-68926932D01*
X71030138Y-68976045D01*
X71013498Y-69024516D01*
X71012294Y-69031733D01*
X71011382Y-69039046D01*
X71013500Y-69090230D01*
X71013500Y-71764288D01*
X71010861Y-71789732D01*
X71008957Y-71798811D01*
X71008957Y-71798817D01*
X71013023Y-71831437D01*
X71013500Y-71839114D01*
X71013500Y-71842538D01*
X71017087Y-71864041D01*
X71023427Y-71914893D01*
X71025520Y-71921926D01*
X71027908Y-71928881D01*
X71052295Y-71973944D01*
X71074801Y-72019983D01*
X71079065Y-72025955D01*
X71083580Y-72031756D01*
X71121275Y-72066458D01*
X72165126Y-73110308D01*
X72198611Y-73171631D01*
X72193627Y-73241323D01*
X72188447Y-73253256D01*
X72185223Y-73259730D01*
X72185214Y-73259752D01*
X72129962Y-73453944D01*
X72129961Y-73453947D01*
X72111332Y-73654999D01*
X72111332Y-73655000D01*
X72129961Y-73856052D01*
X72185219Y-74050262D01*
X72266810Y-74214116D01*
X72275220Y-74231005D01*
X72377510Y-74366460D01*
X72396902Y-74392138D01*
X72396906Y-74392142D01*
X72546115Y-74528164D01*
X72546117Y-74528166D01*
X72717783Y-74634457D01*
X72717789Y-74634460D01*
X72780547Y-74658772D01*
X72906067Y-74707399D01*
X73104543Y-74744500D01*
X73104546Y-74744500D01*
X73306454Y-74744500D01*
X73306457Y-74744500D01*
X73504933Y-74707399D01*
X73693213Y-74634459D01*
X73864884Y-74528165D01*
X74014100Y-74392136D01*
X74135780Y-74231005D01*
X74196027Y-74110011D01*
X74225780Y-74050262D01*
X74281038Y-73856052D01*
X74299668Y-73655000D01*
X74299668Y-73654999D01*
X74281038Y-73453947D01*
X74225780Y-73259737D01*
X74144189Y-73095883D01*
X74135780Y-73078995D01*
X74014100Y-72917864D01*
X74014097Y-72917861D01*
X74014093Y-72917857D01*
X73864884Y-72781835D01*
X73864882Y-72781833D01*
X73693216Y-72675542D01*
X73693210Y-72675539D01*
X73504936Y-72602602D01*
X73504935Y-72602601D01*
X73504933Y-72602601D01*
X73306457Y-72565500D01*
X73104543Y-72565500D01*
X72941424Y-72595991D01*
X72906061Y-72602602D01*
X72795964Y-72645254D01*
X72726341Y-72651116D01*
X72664601Y-72618406D01*
X72663490Y-72617308D01*
X71750819Y-71704637D01*
X71717334Y-71643314D01*
X71714500Y-71616956D01*
X71714500Y-69279543D01*
X71734185Y-69212504D01*
X71750815Y-69191866D01*
X71840820Y-69101861D01*
X71902142Y-69068377D01*
X71971834Y-69073361D01*
X72027767Y-69115233D01*
X72052184Y-69180697D01*
X72052500Y-69189543D01*
X72052500Y-70753752D01*
X72064131Y-70812229D01*
X72064132Y-70812230D01*
X72108447Y-70878552D01*
X72174769Y-70922867D01*
X72174770Y-70922868D01*
X72233247Y-70934499D01*
X72233250Y-70934500D01*
X72233252Y-70934500D01*
X73684456Y-70934500D01*
X73751495Y-70954185D01*
X73772137Y-70970819D01*
X74533181Y-71731863D01*
X74566666Y-71793186D01*
X74569500Y-71819544D01*
X74569500Y-79590955D01*
X74549815Y-79657994D01*
X74497011Y-79703749D01*
X74427853Y-79713693D01*
X74364297Y-79684668D01*
X74326840Y-79626951D01*
X74326073Y-79624425D01*
X74324814Y-79620273D01*
X74231910Y-79446462D01*
X74231909Y-79446460D01*
X74106883Y-79294116D01*
X73954539Y-79169090D01*
X73954532Y-79169086D01*
X73780733Y-79076188D01*
X73780727Y-79076186D01*
X73592132Y-79018976D01*
X73592129Y-79018975D01*
X73396000Y-78999659D01*
X73199869Y-79018975D01*
X73045255Y-79065877D01*
X72975388Y-79066500D01*
X72921579Y-79034897D01*
X72154637Y-78267955D01*
X72138511Y-78248098D01*
X72133437Y-78240331D01*
X72107487Y-78220133D01*
X72101741Y-78215059D01*
X72099307Y-78212625D01*
X72099306Y-78212624D01*
X72099305Y-78212623D01*
X72092848Y-78208013D01*
X72081561Y-78199955D01*
X72041126Y-78168483D01*
X72041122Y-78168481D01*
X72034648Y-78164977D01*
X72028069Y-78161760D01*
X71978954Y-78147138D01*
X71930486Y-78130498D01*
X71923269Y-78129294D01*
X71915953Y-78128382D01*
X71866725Y-78130419D01*
X71864769Y-78130500D01*
X68766544Y-78130500D01*
X68699505Y-78110815D01*
X68678863Y-78094181D01*
X68448819Y-77864137D01*
X68415334Y-77802814D01*
X68412500Y-77776456D01*
X68412500Y-77067811D01*
X68432185Y-77000772D01*
X68462394Y-76968392D01*
X68463098Y-76967868D01*
X68528608Y-76943591D01*
X68596850Y-76958586D01*
X68640297Y-76998401D01*
X68662448Y-77031553D01*
X68728769Y-77075867D01*
X68728770Y-77075868D01*
X68787247Y-77087499D01*
X68787250Y-77087500D01*
X68787252Y-77087500D01*
X69876750Y-77087500D01*
X69876751Y-77087499D01*
X69891568Y-77084552D01*
X69935229Y-77075868D01*
X69935229Y-77075867D01*
X69935231Y-77075867D01*
X70001552Y-77031552D01*
X70045867Y-76965231D01*
X70045867Y-76965229D01*
X70045868Y-76965229D01*
X70057499Y-76906752D01*
X70057500Y-76906750D01*
X70057500Y-76669500D01*
X70077185Y-76602461D01*
X70129989Y-76556706D01*
X70181500Y-76545500D01*
X71992000Y-76545500D01*
X72059039Y-76565185D01*
X72104794Y-76617989D01*
X72116000Y-76669500D01*
X72116000Y-77103752D01*
X72127631Y-77162229D01*
X72127632Y-77162230D01*
X72171947Y-77228552D01*
X72238269Y-77272867D01*
X72238270Y-77272868D01*
X72296747Y-77284499D01*
X72296750Y-77284500D01*
X72296752Y-77284500D01*
X74114250Y-77284500D01*
X74114251Y-77284499D01*
X74129068Y-77281552D01*
X74172729Y-77272868D01*
X74172729Y-77272867D01*
X74172731Y-77272867D01*
X74239052Y-77228552D01*
X74283367Y-77162231D01*
X74283367Y-77162229D01*
X74283368Y-77162229D01*
X74294999Y-77103752D01*
X74295000Y-77103750D01*
X74295000Y-75286249D01*
X74294999Y-75286247D01*
X74283368Y-75227770D01*
X74283367Y-75227769D01*
X74239052Y-75161447D01*
X74172730Y-75117132D01*
X74172729Y-75117131D01*
X74114252Y-75105500D01*
X74114248Y-75105500D01*
X72296752Y-75105500D01*
X72296747Y-75105500D01*
X72238270Y-75117131D01*
X72238269Y-75117132D01*
X72171947Y-75161447D01*
X72127632Y-75227769D01*
X72127631Y-75227770D01*
X72116000Y-75286247D01*
X72116000Y-75720500D01*
X72096315Y-75787539D01*
X72043511Y-75833294D01*
X71992000Y-75844500D01*
X70181500Y-75844500D01*
X70114461Y-75824815D01*
X70068706Y-75772011D01*
X70057500Y-75720500D01*
X70057500Y-75367249D01*
X70057499Y-75367247D01*
X70045868Y-75308770D01*
X70045867Y-75308769D01*
X70001552Y-75242447D01*
X69935230Y-75198132D01*
X69935229Y-75198131D01*
X69876752Y-75186500D01*
X69876748Y-75186500D01*
X68787252Y-75186500D01*
X68787247Y-75186500D01*
X68728770Y-75198131D01*
X68728769Y-75198132D01*
X68662446Y-75242448D01*
X68640909Y-75274681D01*
X68587296Y-75319486D01*
X68517971Y-75328192D01*
X68475809Y-75313177D01*
X68429173Y-75286252D01*
X68351312Y-75241299D01*
X68207124Y-75198132D01*
X68188840Y-75192658D01*
X68188834Y-75192657D01*
X68019530Y-75182796D01*
X68019528Y-75182797D01*
X67852514Y-75212245D01*
X67852509Y-75212246D01*
X67852508Y-75212247D01*
X67782494Y-75242448D01*
X67696780Y-75279421D01*
X67560745Y-75380695D01*
X67560740Y-75380699D01*
X67523854Y-75424658D01*
X67465683Y-75463359D01*
X67395822Y-75464467D01*
X67343772Y-75435145D01*
X67228190Y-75326098D01*
X67081314Y-75241300D01*
X67081313Y-75241299D01*
X67081312Y-75241299D01*
X66984264Y-75212245D01*
X66918840Y-75192658D01*
X66918834Y-75192657D01*
X66749530Y-75182796D01*
X66749528Y-75182797D01*
X66582514Y-75212245D01*
X66582509Y-75212246D01*
X66582508Y-75212247D01*
X66512494Y-75242448D01*
X66426780Y-75279421D01*
X66290745Y-75380695D01*
X66290741Y-75380698D01*
X66181727Y-75510616D01*
X66181726Y-75510618D01*
X66105613Y-75662171D01*
X66105612Y-75662174D01*
X66105612Y-75662175D01*
X66066500Y-75827201D01*
X66066500Y-76404256D01*
X66081250Y-76530451D01*
X66101981Y-76587410D01*
X66139256Y-76689820D01*
X66232451Y-76831517D01*
X66302530Y-76897633D01*
X66355807Y-76947898D01*
X66355808Y-76947899D01*
X66355812Y-76947902D01*
X66404501Y-76976012D01*
X66452715Y-77026577D01*
X66466500Y-77083398D01*
X66466500Y-77817448D01*
X66466264Y-77822855D01*
X66462735Y-77863178D01*
X66473212Y-77902280D01*
X66474383Y-77907560D01*
X66481411Y-77947413D01*
X66483235Y-77952425D01*
X66490197Y-77969231D01*
X66492445Y-77974051D01*
X66492446Y-77974054D01*
X66506452Y-77994057D01*
X66515655Y-78007201D01*
X66518561Y-78011762D01*
X66538806Y-78046825D01*
X66569815Y-78072845D01*
X66573805Y-78076501D01*
X67437984Y-78940681D01*
X67471469Y-79002004D01*
X67466485Y-79071696D01*
X67424613Y-79127629D01*
X67359149Y-79152046D01*
X67291850Y-79137720D01*
X67176732Y-79076188D01*
X67176729Y-79076187D01*
X67176727Y-79076186D01*
X66988132Y-79018976D01*
X66988129Y-79018975D01*
X66792000Y-78999659D01*
X66595870Y-79018975D01*
X66407266Y-79076188D01*
X66233467Y-79169086D01*
X66233460Y-79169090D01*
X66081116Y-79294116D01*
X65956090Y-79446460D01*
X65956086Y-79446467D01*
X65879926Y-79588953D01*
X65830964Y-79638797D01*
X65770568Y-79654500D01*
X65464544Y-79654500D01*
X65397505Y-79634815D01*
X65376863Y-79618181D01*
X63698102Y-77939420D01*
X63664617Y-77878097D01*
X63667123Y-77815743D01*
X63714023Y-77661134D01*
X63714024Y-77661132D01*
X63733341Y-77465000D01*
X63714024Y-77268868D01*
X63656814Y-77080273D01*
X63656811Y-77080269D01*
X63656811Y-77080266D01*
X63563913Y-76906467D01*
X63563909Y-76906460D01*
X63438883Y-76754116D01*
X63286539Y-76629090D01*
X63286532Y-76629086D01*
X63112733Y-76536188D01*
X63112727Y-76536186D01*
X62924132Y-76478976D01*
X62924129Y-76478975D01*
X62728000Y-76459659D01*
X62531870Y-76478975D01*
X62437570Y-76507581D01*
X62343273Y-76536186D01*
X62343271Y-76536186D01*
X62343271Y-76536187D01*
X62227308Y-76598170D01*
X62158905Y-76612411D01*
X62093661Y-76587410D01*
X62081174Y-76576492D01*
X61336819Y-75832137D01*
X61303334Y-75770814D01*
X61300500Y-75744456D01*
X61300500Y-74925000D01*
X61722659Y-74925000D01*
X61741975Y-75121129D01*
X61741976Y-75121132D01*
X61798895Y-75308769D01*
X61799188Y-75309733D01*
X61892086Y-75483532D01*
X61892090Y-75483539D01*
X62017116Y-75635883D01*
X62169460Y-75760909D01*
X62169467Y-75760913D01*
X62343266Y-75853811D01*
X62343269Y-75853811D01*
X62343273Y-75853814D01*
X62531868Y-75911024D01*
X62728000Y-75930341D01*
X62924132Y-75911024D01*
X63112727Y-75853814D01*
X63130153Y-75844500D01*
X63236719Y-75787539D01*
X63286538Y-75760910D01*
X63438883Y-75635883D01*
X63563910Y-75483538D01*
X63656814Y-75309727D01*
X63714024Y-75121132D01*
X63733341Y-74925000D01*
X63714024Y-74728868D01*
X63656814Y-74540273D01*
X63656811Y-74540269D01*
X63656811Y-74540266D01*
X63563913Y-74366467D01*
X63563909Y-74366460D01*
X63438883Y-74214116D01*
X63286539Y-74089090D01*
X63286532Y-74089086D01*
X63112733Y-73996188D01*
X63112727Y-73996186D01*
X62924132Y-73938976D01*
X62924129Y-73938975D01*
X62728000Y-73919659D01*
X62531870Y-73938975D01*
X62343266Y-73996188D01*
X62169467Y-74089086D01*
X62169460Y-74089090D01*
X62017116Y-74214116D01*
X61892090Y-74366460D01*
X61892086Y-74366467D01*
X61799188Y-74540266D01*
X61741975Y-74728870D01*
X61722659Y-74925000D01*
X61300500Y-74925000D01*
X61300500Y-72385000D01*
X61722659Y-72385000D01*
X61741975Y-72581129D01*
X61799188Y-72769733D01*
X61892086Y-72943532D01*
X61892090Y-72943539D01*
X62017116Y-73095883D01*
X62169460Y-73220909D01*
X62169467Y-73220913D01*
X62343266Y-73313811D01*
X62343269Y-73313811D01*
X62343273Y-73313814D01*
X62531868Y-73371024D01*
X62728000Y-73390341D01*
X62924132Y-73371024D01*
X63112727Y-73313814D01*
X63286538Y-73220910D01*
X63438883Y-73095883D01*
X63563910Y-72943538D01*
X63656814Y-72769727D01*
X63714024Y-72581132D01*
X63733341Y-72385000D01*
X63714024Y-72188868D01*
X63658892Y-72007126D01*
X63658270Y-71937262D01*
X63689873Y-71883452D01*
X64024236Y-71549090D01*
X64366507Y-71206819D01*
X64427830Y-71173334D01*
X64454188Y-71170500D01*
X67137500Y-71170500D01*
X67204539Y-71190185D01*
X67250294Y-71242989D01*
X67261500Y-71294500D01*
X67261500Y-71464752D01*
X67273131Y-71523229D01*
X67273132Y-71523230D01*
X67317447Y-71589552D01*
X67383769Y-71633867D01*
X67383770Y-71633868D01*
X67442247Y-71645499D01*
X67442250Y-71645500D01*
X67442252Y-71645500D01*
X68681750Y-71645500D01*
X68681751Y-71645499D01*
X68696568Y-71642552D01*
X68740229Y-71633868D01*
X68740229Y-71633867D01*
X68740231Y-71633867D01*
X68806552Y-71589552D01*
X68850867Y-71523231D01*
X68850867Y-71523229D01*
X68850868Y-71523229D01*
X68862499Y-71464752D01*
X68862500Y-71464750D01*
X68862500Y-71275369D01*
X68882185Y-71208330D01*
X68934989Y-71162575D01*
X68944089Y-71158847D01*
X68953038Y-71155589D01*
X68953045Y-71155588D01*
X68953050Y-71155584D01*
X68958107Y-71153744D01*
X68974824Y-71146819D01*
X68979681Y-71144554D01*
X68979684Y-71144554D01*
X69012841Y-71121335D01*
X69017390Y-71118438D01*
X69052455Y-71098194D01*
X69078481Y-71067176D01*
X69082122Y-71063202D01*
X70058204Y-70087120D01*
X70062166Y-70083489D01*
X70093194Y-70057455D01*
X70113438Y-70022390D01*
X70116335Y-70017841D01*
X70139554Y-69984684D01*
X70139554Y-69984681D01*
X70141819Y-69979824D01*
X70148747Y-69963099D01*
X70150584Y-69958050D01*
X70150588Y-69958045D01*
X70157619Y-69918162D01*
X70158777Y-69912940D01*
X70169264Y-69873807D01*
X70165735Y-69833478D01*
X70165500Y-69828075D01*
X70165500Y-68253188D01*
X70185185Y-68186149D01*
X70201819Y-68165507D01*
X71263379Y-67103947D01*
X72574508Y-65792817D01*
X72635829Y-65759334D01*
X72705521Y-65764318D01*
X72706981Y-65764873D01*
X72755698Y-65783746D01*
X72842567Y-65817399D01*
X73041043Y-65854500D01*
X73041046Y-65854500D01*
X73242954Y-65854500D01*
X73242957Y-65854500D01*
X73441433Y-65817399D01*
X73629713Y-65744459D01*
X73801384Y-65638165D01*
X73950600Y-65502136D01*
X74072280Y-65341005D01*
X74132527Y-65220011D01*
X74162280Y-65160262D01*
X74217538Y-64966052D01*
X74236168Y-64765000D01*
X74236168Y-64764999D01*
X74217538Y-64563947D01*
X74162280Y-64369737D01*
X74078718Y-64201925D01*
X74072280Y-64188995D01*
X73950600Y-64027864D01*
X73950597Y-64027861D01*
X73950593Y-64027857D01*
X73801384Y-63891835D01*
X73801382Y-63891833D01*
X73629716Y-63785542D01*
X73629710Y-63785539D01*
X73441436Y-63712602D01*
X73441435Y-63712601D01*
X73441433Y-63712601D01*
X73242957Y-63675500D01*
X73041043Y-63675500D01*
X72842567Y-63712601D01*
X72842565Y-63712601D01*
X72842563Y-63712602D01*
X72654289Y-63785539D01*
X72654283Y-63785542D01*
X72482617Y-63891833D01*
X72482615Y-63891835D01*
X72333406Y-64027857D01*
X72333402Y-64027861D01*
X72211720Y-64188994D01*
X72121719Y-64369737D01*
X72066461Y-64563947D01*
X72047832Y-64764999D01*
X72047832Y-64765000D01*
X72066461Y-64966052D01*
X72121718Y-65160256D01*
X72121723Y-65160269D01*
X72136697Y-65190340D01*
X72148958Y-65259126D01*
X72122085Y-65323621D01*
X72113378Y-65333293D01*
X69621803Y-67824870D01*
X69617814Y-67828525D01*
X69586805Y-67854545D01*
X69566562Y-67889606D01*
X69563656Y-67894166D01*
X69540446Y-67927313D01*
X69538206Y-67932117D01*
X69531229Y-67948961D01*
X69529410Y-67953959D01*
X69522383Y-67993811D01*
X69521212Y-67999091D01*
X69510735Y-68038191D01*
X69514264Y-68078513D01*
X69514500Y-68083920D01*
X69514500Y-69658812D01*
X69494815Y-69725851D01*
X69478181Y-69746493D01*
X69040634Y-70184039D01*
X68979311Y-70217524D01*
X68909619Y-70212540D01*
X68853686Y-70170668D01*
X68849851Y-70165249D01*
X68806552Y-70100447D01*
X68740230Y-70056132D01*
X68740229Y-70056131D01*
X68681752Y-70044500D01*
X68681748Y-70044500D01*
X67442252Y-70044500D01*
X67442247Y-70044500D01*
X67383770Y-70056131D01*
X67383769Y-70056132D01*
X67317447Y-70100447D01*
X67273132Y-70166769D01*
X67273131Y-70166770D01*
X67261500Y-70225247D01*
X67261500Y-70395500D01*
X67241815Y-70462539D01*
X67189011Y-70508294D01*
X67137500Y-70519500D01*
X64284922Y-70519500D01*
X64279518Y-70519264D01*
X64274107Y-70518790D01*
X64239192Y-70515735D01*
X64239191Y-70515735D01*
X64200091Y-70526212D01*
X64194811Y-70527383D01*
X64154959Y-70534410D01*
X64149961Y-70536229D01*
X64133117Y-70543206D01*
X64128313Y-70545446D01*
X64095166Y-70568656D01*
X64090606Y-70571562D01*
X64055548Y-70591804D01*
X64055540Y-70591810D01*
X64029523Y-70622815D01*
X64025869Y-70626804D01*
X63229546Y-71423126D01*
X63168223Y-71456611D01*
X63105870Y-71454106D01*
X62924130Y-71398975D01*
X62728000Y-71379659D01*
X62531870Y-71398975D01*
X62343266Y-71456188D01*
X62169467Y-71549086D01*
X62169460Y-71549090D01*
X62017116Y-71674116D01*
X61892090Y-71826460D01*
X61892086Y-71826467D01*
X61799188Y-72000266D01*
X61741975Y-72188870D01*
X61722659Y-72385000D01*
X61300500Y-72385000D01*
X61300500Y-69845000D01*
X61722659Y-69845000D01*
X61741975Y-70041129D01*
X61754820Y-70083474D01*
X61793972Y-70212540D01*
X61799188Y-70229733D01*
X61892086Y-70403532D01*
X61892090Y-70403539D01*
X62017116Y-70555883D01*
X62169460Y-70680909D01*
X62169467Y-70680913D01*
X62343266Y-70773811D01*
X62343269Y-70773811D01*
X62343273Y-70773814D01*
X62531868Y-70831024D01*
X62728000Y-70850341D01*
X62924132Y-70831024D01*
X63112727Y-70773814D01*
X63150261Y-70753752D01*
X63286532Y-70680913D01*
X63286538Y-70680910D01*
X63438883Y-70555883D01*
X63563910Y-70403538D01*
X63656814Y-70229727D01*
X63714024Y-70041132D01*
X63733341Y-69845000D01*
X63714024Y-69648868D01*
X63656814Y-69460273D01*
X63656811Y-69460269D01*
X63656811Y-69460266D01*
X63563913Y-69286467D01*
X63563907Y-69286458D01*
X63438883Y-69134116D01*
X63286539Y-69009090D01*
X63286532Y-69009086D01*
X63112733Y-68916188D01*
X63112727Y-68916186D01*
X62924132Y-68858976D01*
X62924129Y-68858975D01*
X62728000Y-68839659D01*
X62531870Y-68858975D01*
X62343266Y-68916188D01*
X62169467Y-69009086D01*
X62169460Y-69009090D01*
X62017116Y-69134116D01*
X61892093Y-69286458D01*
X61892086Y-69286467D01*
X61799188Y-69460266D01*
X61741975Y-69648870D01*
X61722659Y-69845000D01*
X61300500Y-69845000D01*
X61300500Y-64707544D01*
X61320185Y-64640505D01*
X61336819Y-64619863D01*
X63483819Y-62472863D01*
X63545142Y-62439378D01*
X63614834Y-62444362D01*
X63670767Y-62486234D01*
X63695184Y-62551698D01*
X63695500Y-62560544D01*
X63695500Y-62634153D01*
X63707131Y-62692630D01*
X63707132Y-62692631D01*
X63751447Y-62758953D01*
X63817769Y-62803268D01*
X63817770Y-62803269D01*
X63876247Y-62814900D01*
X63876250Y-62814901D01*
X64900456Y-62814901D01*
X64967495Y-62834586D01*
X65013250Y-62887390D01*
X65023194Y-62956548D01*
X64994169Y-63020104D01*
X64988137Y-63026582D01*
X64812155Y-63202563D01*
X64750832Y-63236048D01*
X64683524Y-63231925D01*
X64675263Y-63229034D01*
X64675249Y-63229031D01*
X64496004Y-63208836D01*
X64495996Y-63208836D01*
X64316750Y-63229031D01*
X64316745Y-63229032D01*
X64146476Y-63288612D01*
X63993737Y-63384585D01*
X63866184Y-63512138D01*
X63770211Y-63664877D01*
X63710631Y-63835146D01*
X63710630Y-63835151D01*
X63690435Y-64014397D01*
X63690435Y-64014404D01*
X63710630Y-64193650D01*
X63710633Y-64193664D01*
X63713524Y-64201925D01*
X63717083Y-64271704D01*
X63684162Y-64330556D01*
X62514955Y-65499762D01*
X62495106Y-65515883D01*
X62487331Y-65520963D01*
X62467143Y-65546899D01*
X62462067Y-65552649D01*
X62459634Y-65555082D01*
X62459623Y-65555095D01*
X62446954Y-65572839D01*
X62415483Y-65613273D01*
X62411975Y-65619754D01*
X62408760Y-65626333D01*
X62394138Y-65675446D01*
X62377498Y-65723917D01*
X62376294Y-65731134D01*
X62375382Y-65738447D01*
X62377500Y-65789631D01*
X62377500Y-66283568D01*
X62357815Y-66350607D01*
X62311953Y-66392926D01*
X62169467Y-66469086D01*
X62169460Y-66469090D01*
X62017116Y-66594116D01*
X61892090Y-66746460D01*
X61892086Y-66746467D01*
X61799188Y-66920266D01*
X61741975Y-67108870D01*
X61722659Y-67305000D01*
X61741975Y-67501129D01*
X61799188Y-67689733D01*
X61892086Y-67863532D01*
X61892090Y-67863539D01*
X62017116Y-68015883D01*
X62169460Y-68140909D01*
X62169467Y-68140913D01*
X62343266Y-68233811D01*
X62343269Y-68233811D01*
X62343273Y-68233814D01*
X62531868Y-68291024D01*
X62728000Y-68310341D01*
X62924132Y-68291024D01*
X63078743Y-68244123D01*
X63148610Y-68243499D01*
X63202420Y-68275102D01*
X63985360Y-69058041D01*
X64001484Y-69077896D01*
X64006563Y-69085669D01*
X64032509Y-69105863D01*
X64038272Y-69110953D01*
X64040694Y-69113375D01*
X64040695Y-69113376D01*
X64049562Y-69119706D01*
X64058430Y-69126038D01*
X64064186Y-69130518D01*
X64098875Y-69157518D01*
X64105295Y-69160992D01*
X64105344Y-69161016D01*
X64105390Y-69161041D01*
X64111932Y-69164239D01*
X64111933Y-69164239D01*
X64111934Y-69164240D01*
X64126078Y-69168451D01*
X64161045Y-69178862D01*
X64206663Y-69194522D01*
X64209512Y-69195500D01*
X64209515Y-69195500D01*
X64216625Y-69196687D01*
X64216731Y-69196700D01*
X64216855Y-69196720D01*
X64224046Y-69197617D01*
X64275231Y-69195500D01*
X67268293Y-69195500D01*
X67335332Y-69215185D01*
X67373287Y-69253528D01*
X67393978Y-69286458D01*
X67432184Y-69347262D01*
X67559738Y-69474816D01*
X67712478Y-69570789D01*
X67882745Y-69630368D01*
X67882750Y-69630369D01*
X68061996Y-69650565D01*
X68062000Y-69650565D01*
X68062004Y-69650565D01*
X68241249Y-69630369D01*
X68241252Y-69630368D01*
X68241255Y-69630368D01*
X68411522Y-69570789D01*
X68564262Y-69474816D01*
X68691816Y-69347262D01*
X68787789Y-69194522D01*
X68847368Y-69024255D01*
X68852800Y-68976045D01*
X68867565Y-68845003D01*
X68867565Y-68844996D01*
X68847369Y-68665750D01*
X68847368Y-68665745D01*
X68787788Y-68495476D01*
X68691815Y-68342737D01*
X68564260Y-68215182D01*
X68564258Y-68215181D01*
X68470527Y-68156285D01*
X68424237Y-68103951D01*
X68412500Y-68051292D01*
X68412500Y-66295043D01*
X68432185Y-66228004D01*
X68448814Y-66207367D01*
X73107991Y-61548189D01*
X73169312Y-61514706D01*
X73239004Y-61519690D01*
X73240450Y-61520239D01*
X73350567Y-61562899D01*
X73549043Y-61600000D01*
X73549046Y-61600000D01*
X73750954Y-61600000D01*
X73750957Y-61600000D01*
X73949433Y-61562899D01*
X74105305Y-61502513D01*
X74174924Y-61496651D01*
X74236665Y-61529360D01*
G37*
%TD.AperFunction*%
%TA.AperFunction,NonConductor*%
G36*
X71742495Y-89011185D02*
G01*
X71763137Y-89027819D01*
X72425897Y-89690579D01*
X72459382Y-89751902D01*
X72456877Y-89814255D01*
X72409975Y-89968869D01*
X72390659Y-90165000D01*
X72409975Y-90361129D01*
X72409976Y-90361132D01*
X72447433Y-90484612D01*
X72467188Y-90549733D01*
X72560086Y-90723532D01*
X72560090Y-90723539D01*
X72685116Y-90875883D01*
X72837460Y-91000909D01*
X72837467Y-91000913D01*
X73011266Y-91093811D01*
X73011269Y-91093811D01*
X73011273Y-91093814D01*
X73199868Y-91151024D01*
X73396000Y-91170341D01*
X73592132Y-91151024D01*
X73780727Y-91093814D01*
X73789534Y-91089107D01*
X73892717Y-91033954D01*
X73954538Y-91000910D01*
X74106883Y-90875883D01*
X74231910Y-90723538D01*
X74324814Y-90549727D01*
X74326839Y-90543050D01*
X74365135Y-90484612D01*
X74428947Y-90456154D01*
X74498014Y-90466713D01*
X74550408Y-90512936D01*
X74569500Y-90579044D01*
X74569500Y-90730456D01*
X74549815Y-90797495D01*
X74533181Y-90818137D01*
X73795137Y-91556181D01*
X73733814Y-91589666D01*
X73707456Y-91592500D01*
X70471760Y-91592500D01*
X70404721Y-91572815D01*
X70358966Y-91520011D01*
X70349022Y-91450853D01*
X70370837Y-91396454D01*
X70375036Y-91390572D01*
X70385583Y-91377021D01*
X70406517Y-91350126D01*
X70406519Y-91350119D01*
X70410017Y-91343655D01*
X70413235Y-91337072D01*
X70413240Y-91337066D01*
X70427861Y-91287954D01*
X70444500Y-91239488D01*
X70444500Y-91239479D01*
X70445706Y-91232258D01*
X70446617Y-91224952D01*
X70445984Y-91209639D01*
X70445222Y-91191224D01*
X70462119Y-91123430D01*
X70510660Y-91076744D01*
X70652538Y-91000910D01*
X70804883Y-90875883D01*
X70929910Y-90723538D01*
X71022814Y-90549727D01*
X71080024Y-90361132D01*
X71099341Y-90165000D01*
X71080024Y-89968868D01*
X71022814Y-89780273D01*
X71022811Y-89780269D01*
X71022811Y-89780266D01*
X70929913Y-89606467D01*
X70929909Y-89606460D01*
X70804883Y-89454116D01*
X70652539Y-89329090D01*
X70652532Y-89329086D01*
X70478728Y-89236186D01*
X70472049Y-89234160D01*
X70413611Y-89195863D01*
X70385154Y-89132051D01*
X70395715Y-89062984D01*
X70441940Y-89010590D01*
X70508045Y-88991500D01*
X71675456Y-88991500D01*
X71742495Y-89011185D01*
G37*
%TD.AperFunction*%
%TA.AperFunction,NonConductor*%
G36*
X69746994Y-89011185D02*
G01*
X69792749Y-89063989D01*
X69802693Y-89133147D01*
X69773668Y-89196703D01*
X69715951Y-89234160D01*
X69709271Y-89236186D01*
X69535467Y-89329086D01*
X69535460Y-89329090D01*
X69383116Y-89454116D01*
X69258090Y-89606460D01*
X69258086Y-89606467D01*
X69165188Y-89780266D01*
X69107975Y-89968870D01*
X69088659Y-90165000D01*
X69107975Y-90361129D01*
X69107976Y-90361132D01*
X69145433Y-90484612D01*
X69165188Y-90549733D01*
X69258086Y-90723532D01*
X69258090Y-90723539D01*
X69383116Y-90875883D01*
X69535460Y-91000909D01*
X69535462Y-91000910D01*
X69546325Y-91006716D01*
X69596172Y-91055676D01*
X69611635Y-91123813D01*
X69587807Y-91189494D01*
X69575558Y-91203758D01*
X69223137Y-91556181D01*
X69161814Y-91589666D01*
X69135456Y-91592500D01*
X67169760Y-91592500D01*
X67102721Y-91572815D01*
X67056966Y-91520011D01*
X67047022Y-91450853D01*
X67068837Y-91396454D01*
X67073036Y-91390572D01*
X67083583Y-91377021D01*
X67104517Y-91350126D01*
X67104519Y-91350119D01*
X67108017Y-91343655D01*
X67111235Y-91337072D01*
X67111240Y-91337066D01*
X67125861Y-91287954D01*
X67142500Y-91239488D01*
X67142500Y-91239479D01*
X67143706Y-91232258D01*
X67144617Y-91224952D01*
X67143984Y-91209639D01*
X67143222Y-91191224D01*
X67160119Y-91123430D01*
X67208660Y-91076744D01*
X67350538Y-91000910D01*
X67502883Y-90875883D01*
X67627910Y-90723538D01*
X67720814Y-90549727D01*
X67778024Y-90361132D01*
X67797341Y-90165000D01*
X67778024Y-89968868D01*
X67720814Y-89780273D01*
X67720811Y-89780269D01*
X67720811Y-89780266D01*
X67627913Y-89606467D01*
X67627909Y-89606460D01*
X67502883Y-89454116D01*
X67350539Y-89329090D01*
X67350532Y-89329086D01*
X67176728Y-89236186D01*
X67170049Y-89234160D01*
X67111611Y-89195863D01*
X67083154Y-89132051D01*
X67093715Y-89062984D01*
X67139940Y-89010590D01*
X67206045Y-88991500D01*
X69679955Y-88991500D01*
X69746994Y-89011185D01*
G37*
%TD.AperFunction*%
%TA.AperFunction,NonConductor*%
G36*
X55673703Y-55285831D02*
G01*
X55680181Y-55291863D01*
X58043763Y-57655445D01*
X58059887Y-57675300D01*
X58064964Y-57683070D01*
X58090909Y-57703263D01*
X58096661Y-57708343D01*
X58099094Y-57710776D01*
X58099097Y-57710778D01*
X58099098Y-57710779D01*
X58116835Y-57723442D01*
X58157275Y-57754918D01*
X58157277Y-57754918D01*
X58163649Y-57758367D01*
X58163706Y-57758395D01*
X58163779Y-57758434D01*
X58170330Y-57761636D01*
X58170335Y-57761640D01*
X58219434Y-57776257D01*
X58267913Y-57792901D01*
X58267921Y-57792901D01*
X58275106Y-57794100D01*
X58275139Y-57794105D01*
X58275193Y-57794114D01*
X58282447Y-57795018D01*
X58333632Y-57792901D01*
X63581500Y-57792901D01*
X63648539Y-57812586D01*
X63694294Y-57865390D01*
X63705500Y-57916901D01*
X63705500Y-58062153D01*
X63717131Y-58120630D01*
X63717132Y-58120631D01*
X63761447Y-58186953D01*
X63827769Y-58231268D01*
X63827770Y-58231269D01*
X63886247Y-58242900D01*
X63886250Y-58242901D01*
X64910455Y-58242901D01*
X64977494Y-58262586D01*
X65023249Y-58315390D01*
X65033193Y-58384548D01*
X65004168Y-58448104D01*
X64998136Y-58454582D01*
X64822153Y-58630564D01*
X64760830Y-58664049D01*
X64693520Y-58659925D01*
X64685255Y-58657033D01*
X64685251Y-58657032D01*
X64685247Y-58657031D01*
X64506004Y-58636836D01*
X64505996Y-58636836D01*
X64326750Y-58657031D01*
X64326745Y-58657032D01*
X64156476Y-58716612D01*
X64003737Y-58812585D01*
X63876184Y-58940138D01*
X63780211Y-59092877D01*
X63720631Y-59263146D01*
X63720630Y-59263151D01*
X63700435Y-59442397D01*
X63700435Y-59442404D01*
X63720630Y-59621650D01*
X63720631Y-59621655D01*
X63780211Y-59791924D01*
X63869794Y-59934494D01*
X63876184Y-59944663D01*
X64003738Y-60072217D01*
X64156478Y-60168190D01*
X64244937Y-60199143D01*
X64326745Y-60227769D01*
X64326750Y-60227770D01*
X64505996Y-60247966D01*
X64506000Y-60247966D01*
X64506004Y-60247966D01*
X64685247Y-60227770D01*
X64685247Y-60227769D01*
X64685255Y-60227769D01*
X64693514Y-60224878D01*
X64763290Y-60221313D01*
X64822154Y-60254237D01*
X65643181Y-61075264D01*
X65676666Y-61136587D01*
X65679500Y-61162945D01*
X65679500Y-62283857D01*
X65659815Y-62350896D01*
X65643181Y-62371538D01*
X65508181Y-62506538D01*
X65446858Y-62540023D01*
X65377166Y-62535039D01*
X65321233Y-62493167D01*
X65296816Y-62427703D01*
X65296500Y-62418857D01*
X65296500Y-61394650D01*
X65296499Y-61394648D01*
X65284868Y-61336171D01*
X65284867Y-61336170D01*
X65240552Y-61269848D01*
X65174230Y-61225533D01*
X65174229Y-61225532D01*
X65115752Y-61213901D01*
X65115748Y-61213901D01*
X63876252Y-61213901D01*
X63876247Y-61213901D01*
X63817770Y-61225532D01*
X63817769Y-61225533D01*
X63751447Y-61269848D01*
X63707132Y-61336170D01*
X63707131Y-61336171D01*
X63695500Y-61394648D01*
X63695500Y-61539901D01*
X63675815Y-61606940D01*
X63623011Y-61652695D01*
X63571500Y-61663901D01*
X63495805Y-61663901D01*
X63470360Y-61661262D01*
X63461284Y-61659359D01*
X63461281Y-61659359D01*
X63428667Y-61663424D01*
X63420991Y-61663901D01*
X63417559Y-61663901D01*
X63403218Y-61666293D01*
X63396047Y-61667490D01*
X63379220Y-61669587D01*
X63345206Y-61673828D01*
X63345205Y-61673828D01*
X63345200Y-61673829D01*
X63338174Y-61675920D01*
X63331222Y-61678307D01*
X63286154Y-61702696D01*
X63240111Y-61725204D01*
X63234165Y-61729449D01*
X63228341Y-61733982D01*
X63193641Y-61771676D01*
X60736955Y-64228361D01*
X60717106Y-64244482D01*
X60709331Y-64249562D01*
X60689143Y-64275498D01*
X60684067Y-64281248D01*
X60681634Y-64283681D01*
X60681623Y-64283694D01*
X60668954Y-64301438D01*
X60637483Y-64341872D01*
X60633975Y-64348353D01*
X60630760Y-64354932D01*
X60616138Y-64404045D01*
X60599498Y-64452516D01*
X60598294Y-64459733D01*
X60597382Y-64467046D01*
X60599500Y-64518230D01*
X60599500Y-75891788D01*
X60596861Y-75917232D01*
X60594957Y-75926311D01*
X60594957Y-75926317D01*
X60599023Y-75958937D01*
X60599500Y-75966614D01*
X60599500Y-75970038D01*
X60603087Y-75991541D01*
X60609427Y-76042393D01*
X60611520Y-76049426D01*
X60613908Y-76056381D01*
X60638295Y-76101444D01*
X60660801Y-76147483D01*
X60665065Y-76153455D01*
X60669580Y-76159256D01*
X60707275Y-76193958D01*
X61704110Y-77190792D01*
X61737595Y-77252115D01*
X61739832Y-77290626D01*
X61722659Y-77464999D01*
X61741975Y-77661129D01*
X61741976Y-77661132D01*
X61791034Y-77822855D01*
X61799188Y-77849733D01*
X61892086Y-78023532D01*
X61892090Y-78023539D01*
X62017116Y-78175883D01*
X62169460Y-78300909D01*
X62169467Y-78300913D01*
X62343266Y-78393811D01*
X62343269Y-78393811D01*
X62343273Y-78393814D01*
X62531868Y-78451024D01*
X62728000Y-78470341D01*
X62924132Y-78451024D01*
X63078743Y-78404123D01*
X63148610Y-78403499D01*
X63202420Y-78435102D01*
X64985362Y-80218044D01*
X65001489Y-80237902D01*
X65006563Y-80245669D01*
X65006565Y-80245671D01*
X65032505Y-80265860D01*
X65038268Y-80270950D01*
X65040693Y-80273375D01*
X65040695Y-80273377D01*
X65051851Y-80281342D01*
X65058437Y-80286044D01*
X65098874Y-80317517D01*
X65098878Y-80317518D01*
X65105314Y-80321000D01*
X65105339Y-80321013D01*
X65105371Y-80321030D01*
X65111930Y-80324237D01*
X65111933Y-80324239D01*
X65161037Y-80338858D01*
X65209512Y-80355500D01*
X65209514Y-80355500D01*
X65216754Y-80356708D01*
X65224046Y-80357617D01*
X65275231Y-80355500D01*
X65770568Y-80355500D01*
X65837607Y-80375185D01*
X65879926Y-80421047D01*
X65956086Y-80563532D01*
X65956090Y-80563539D01*
X66081116Y-80715883D01*
X66233460Y-80840909D01*
X66233467Y-80840913D01*
X66407266Y-80933811D01*
X66407269Y-80933811D01*
X66407273Y-80933814D01*
X66595868Y-80991024D01*
X66792000Y-81010341D01*
X66988132Y-80991024D01*
X67176727Y-80933814D01*
X67350538Y-80840910D01*
X67502883Y-80715883D01*
X67627910Y-80563538D01*
X67720814Y-80389727D01*
X67778024Y-80201132D01*
X67797341Y-80005000D01*
X67778024Y-79808868D01*
X67720814Y-79620273D01*
X67720811Y-79620269D01*
X67720811Y-79620266D01*
X67659280Y-79505149D01*
X67645038Y-79436746D01*
X67670038Y-79371502D01*
X67726343Y-79330132D01*
X67796077Y-79325770D01*
X67856317Y-79359014D01*
X68306171Y-79808868D01*
X68720498Y-80223195D01*
X68724153Y-80227184D01*
X68750171Y-80258190D01*
X68750172Y-80258191D01*
X68750175Y-80258194D01*
X68776470Y-80273375D01*
X68785234Y-80278435D01*
X68789784Y-80281333D01*
X68822946Y-80304553D01*
X68822948Y-80304553D01*
X68822949Y-80304554D01*
X68827798Y-80306815D01*
X68844577Y-80313765D01*
X68849582Y-80315587D01*
X68849583Y-80315587D01*
X68849585Y-80315588D01*
X68889459Y-80322618D01*
X68894722Y-80323786D01*
X68906537Y-80326951D01*
X68933823Y-80334263D01*
X68974140Y-80330735D01*
X68979542Y-80330500D01*
X69059205Y-80330500D01*
X69126244Y-80350185D01*
X69168563Y-80396047D01*
X69258085Y-80563532D01*
X69258090Y-80563539D01*
X69383116Y-80715883D01*
X69535460Y-80840909D01*
X69535467Y-80840913D01*
X69709266Y-80933811D01*
X69709269Y-80933811D01*
X69709273Y-80933814D01*
X69897868Y-80991024D01*
X70094000Y-81010341D01*
X70290132Y-80991024D01*
X70478727Y-80933814D01*
X70652538Y-80840910D01*
X70804883Y-80715883D01*
X70929910Y-80563538D01*
X71022814Y-80389727D01*
X71080024Y-80201132D01*
X71099341Y-80005000D01*
X71080024Y-79808868D01*
X71022814Y-79620273D01*
X71022811Y-79620269D01*
X71022811Y-79620266D01*
X70929913Y-79446467D01*
X70929909Y-79446460D01*
X70804883Y-79294116D01*
X70652539Y-79169090D01*
X70652532Y-79169086D01*
X70478728Y-79076186D01*
X70472049Y-79074160D01*
X70413611Y-79035863D01*
X70385154Y-78972051D01*
X70395715Y-78902984D01*
X70441940Y-78850590D01*
X70508045Y-78831500D01*
X71675456Y-78831500D01*
X71742495Y-78851185D01*
X71763137Y-78867819D01*
X72425897Y-79530579D01*
X72459382Y-79591902D01*
X72456877Y-79654255D01*
X72409975Y-79808869D01*
X72390659Y-80005000D01*
X72409975Y-80201129D01*
X72409976Y-80201132D01*
X72457445Y-80357617D01*
X72467188Y-80389733D01*
X72560086Y-80563532D01*
X72560090Y-80563539D01*
X72685116Y-80715883D01*
X72837460Y-80840909D01*
X72837467Y-80840913D01*
X73011266Y-80933811D01*
X73011269Y-80933811D01*
X73011273Y-80933814D01*
X73199868Y-80991024D01*
X73396000Y-81010341D01*
X73592132Y-80991024D01*
X73780727Y-80933814D01*
X73954538Y-80840910D01*
X74106883Y-80715883D01*
X74231910Y-80563538D01*
X74324814Y-80389727D01*
X74326839Y-80383050D01*
X74365135Y-80324612D01*
X74428947Y-80296154D01*
X74498014Y-80306713D01*
X74550408Y-80352936D01*
X74569500Y-80419044D01*
X74569500Y-89750955D01*
X74549815Y-89817994D01*
X74497011Y-89863749D01*
X74427853Y-89873693D01*
X74364297Y-89844668D01*
X74326840Y-89786951D01*
X74324813Y-89780271D01*
X74231913Y-89606467D01*
X74231909Y-89606460D01*
X74106883Y-89454116D01*
X73954539Y-89329090D01*
X73954532Y-89329086D01*
X73780733Y-89236188D01*
X73780727Y-89236186D01*
X73592132Y-89178976D01*
X73592129Y-89178975D01*
X73396000Y-89159659D01*
X73199869Y-89178975D01*
X73045255Y-89225877D01*
X72975388Y-89226500D01*
X72921579Y-89194897D01*
X72154637Y-88427955D01*
X72138511Y-88408098D01*
X72133437Y-88400331D01*
X72107487Y-88380133D01*
X72101741Y-88375059D01*
X72099307Y-88372625D01*
X72099306Y-88372624D01*
X72099305Y-88372623D01*
X72092848Y-88368013D01*
X72081561Y-88359955D01*
X72041126Y-88328483D01*
X72041122Y-88328481D01*
X72034648Y-88324977D01*
X72028069Y-88321760D01*
X71978954Y-88307138D01*
X71930486Y-88290498D01*
X71923269Y-88289294D01*
X71915953Y-88288382D01*
X71866725Y-88290419D01*
X71864769Y-88290500D01*
X64301206Y-88290500D01*
X64275761Y-88287861D01*
X64266685Y-88285958D01*
X64266682Y-88285958D01*
X64234068Y-88290023D01*
X64226392Y-88290500D01*
X64222960Y-88290500D01*
X64208619Y-88292892D01*
X64201448Y-88294089D01*
X64184621Y-88296186D01*
X64150607Y-88300427D01*
X64150606Y-88300427D01*
X64150601Y-88300428D01*
X64143575Y-88302519D01*
X64136623Y-88304906D01*
X64136619Y-88304907D01*
X64136619Y-88304908D01*
X64105479Y-88321760D01*
X64091555Y-88329295D01*
X64045512Y-88351803D01*
X64039566Y-88356048D01*
X64033742Y-88360581D01*
X63999042Y-88398275D01*
X63202419Y-89194897D01*
X63141096Y-89228382D01*
X63078743Y-89225877D01*
X62924130Y-89178975D01*
X62728000Y-89159659D01*
X62531870Y-89178975D01*
X62343266Y-89236188D01*
X62169467Y-89329086D01*
X62169460Y-89329090D01*
X62017116Y-89454116D01*
X61892090Y-89606460D01*
X61892086Y-89606467D01*
X61799188Y-89780266D01*
X61741975Y-89968870D01*
X61722659Y-90165000D01*
X61741975Y-90361129D01*
X61741976Y-90361132D01*
X61779433Y-90484612D01*
X61799188Y-90549733D01*
X61892086Y-90723532D01*
X61892090Y-90723539D01*
X62017116Y-90875883D01*
X62169460Y-91000909D01*
X62169467Y-91000913D01*
X62343266Y-91093811D01*
X62343269Y-91093811D01*
X62343273Y-91093814D01*
X62531868Y-91151024D01*
X62728000Y-91170341D01*
X62924132Y-91151024D01*
X63112727Y-91093814D01*
X63121534Y-91089107D01*
X63224717Y-91033954D01*
X63286538Y-91000910D01*
X63438883Y-90875883D01*
X63563910Y-90723538D01*
X63656814Y-90549727D01*
X63714024Y-90361132D01*
X63733341Y-90165000D01*
X63714024Y-89968868D01*
X63667121Y-89814253D01*
X63666498Y-89744389D01*
X63698099Y-89690581D01*
X64360863Y-89027819D01*
X64422186Y-88994334D01*
X64448544Y-88991500D01*
X66377955Y-88991500D01*
X66444994Y-89011185D01*
X66490749Y-89063989D01*
X66500693Y-89133147D01*
X66471668Y-89196703D01*
X66413951Y-89234160D01*
X66407271Y-89236186D01*
X66233467Y-89329086D01*
X66233460Y-89329090D01*
X66081116Y-89454116D01*
X65956090Y-89606460D01*
X65956086Y-89606467D01*
X65863188Y-89780266D01*
X65805975Y-89968870D01*
X65786659Y-90165000D01*
X65805975Y-90361129D01*
X65805976Y-90361132D01*
X65843433Y-90484612D01*
X65863188Y-90549733D01*
X65956086Y-90723532D01*
X65956090Y-90723539D01*
X66081116Y-90875883D01*
X66233460Y-91000909D01*
X66233462Y-91000910D01*
X66244325Y-91006716D01*
X66294172Y-91055676D01*
X66309635Y-91123813D01*
X66285807Y-91189494D01*
X66273558Y-91203758D01*
X65921137Y-91556181D01*
X65859814Y-91589666D01*
X65833456Y-91592500D01*
X62162543Y-91592500D01*
X62095504Y-91572815D01*
X62074862Y-91556181D01*
X58143682Y-87625000D01*
X61722659Y-87625000D01*
X61741975Y-87821129D01*
X61799188Y-88009733D01*
X61892086Y-88183532D01*
X61892090Y-88183539D01*
X62017116Y-88335883D01*
X62169460Y-88460909D01*
X62169467Y-88460913D01*
X62343266Y-88553811D01*
X62343269Y-88553811D01*
X62343273Y-88553814D01*
X62531868Y-88611024D01*
X62728000Y-88630341D01*
X62924132Y-88611024D01*
X63112727Y-88553814D01*
X63286538Y-88460910D01*
X63438883Y-88335883D01*
X63563910Y-88183538D01*
X63656814Y-88009727D01*
X63714024Y-87821132D01*
X63733341Y-87625000D01*
X63714024Y-87428868D01*
X63656814Y-87240273D01*
X63656811Y-87240269D01*
X63656811Y-87240266D01*
X63563913Y-87066467D01*
X63563909Y-87066460D01*
X63438883Y-86914116D01*
X63286539Y-86789090D01*
X63286532Y-86789086D01*
X63112733Y-86696188D01*
X63112727Y-86696186D01*
X62924132Y-86638976D01*
X62924129Y-86638975D01*
X62728000Y-86619659D01*
X62531870Y-86638975D01*
X62343266Y-86696188D01*
X62169467Y-86789086D01*
X62169460Y-86789090D01*
X62017116Y-86914116D01*
X61892090Y-87066460D01*
X61892086Y-87066467D01*
X61799188Y-87240266D01*
X61741975Y-87428870D01*
X61722659Y-87625000D01*
X58143682Y-87625000D01*
X57526819Y-87008137D01*
X57493334Y-86946814D01*
X57490500Y-86920456D01*
X57490500Y-85085000D01*
X61722659Y-85085000D01*
X61741975Y-85281129D01*
X61799188Y-85469733D01*
X61892086Y-85643532D01*
X61892090Y-85643539D01*
X62017116Y-85795883D01*
X62169460Y-85920909D01*
X62169467Y-85920913D01*
X62343266Y-86013811D01*
X62343269Y-86013811D01*
X62343273Y-86013814D01*
X62531868Y-86071024D01*
X62728000Y-86090341D01*
X62924132Y-86071024D01*
X63112727Y-86013814D01*
X63286538Y-85920910D01*
X63438883Y-85795883D01*
X63563910Y-85643538D01*
X63656814Y-85469727D01*
X63714024Y-85281132D01*
X63733341Y-85085000D01*
X63714024Y-84888868D01*
X63656814Y-84700273D01*
X63656811Y-84700269D01*
X63656811Y-84700266D01*
X63563913Y-84526467D01*
X63563909Y-84526460D01*
X63438883Y-84374116D01*
X63286539Y-84249090D01*
X63286532Y-84249086D01*
X63112733Y-84156188D01*
X63112727Y-84156186D01*
X62924132Y-84098976D01*
X62924129Y-84098975D01*
X62728000Y-84079659D01*
X62531870Y-84098975D01*
X62343266Y-84156188D01*
X62169467Y-84249086D01*
X62169460Y-84249090D01*
X62017116Y-84374116D01*
X61892090Y-84526460D01*
X61892086Y-84526467D01*
X61799188Y-84700266D01*
X61741975Y-84888870D01*
X61722659Y-85085000D01*
X57490500Y-85085000D01*
X57490500Y-82545000D01*
X61722659Y-82545000D01*
X61741975Y-82741129D01*
X61799188Y-82929733D01*
X61892086Y-83103532D01*
X61892090Y-83103539D01*
X62017116Y-83255883D01*
X62169460Y-83380909D01*
X62169467Y-83380913D01*
X62343266Y-83473811D01*
X62343269Y-83473811D01*
X62343273Y-83473814D01*
X62531868Y-83531024D01*
X62728000Y-83550341D01*
X62924132Y-83531024D01*
X63112727Y-83473814D01*
X63286538Y-83380910D01*
X63438883Y-83255883D01*
X63563910Y-83103538D01*
X63656814Y-82929727D01*
X63714024Y-82741132D01*
X63733341Y-82545000D01*
X63714024Y-82348868D01*
X63656814Y-82160273D01*
X63656811Y-82160269D01*
X63656811Y-82160266D01*
X63563913Y-81986467D01*
X63563909Y-81986460D01*
X63438883Y-81834116D01*
X63286539Y-81709090D01*
X63286532Y-81709086D01*
X63112733Y-81616188D01*
X63112727Y-81616186D01*
X62924132Y-81558976D01*
X62924129Y-81558975D01*
X62728000Y-81539659D01*
X62531870Y-81558975D01*
X62343266Y-81616188D01*
X62169467Y-81709086D01*
X62169460Y-81709090D01*
X62017116Y-81834116D01*
X61892090Y-81986460D01*
X61892086Y-81986467D01*
X61799188Y-82160266D01*
X61741975Y-82348870D01*
X61722659Y-82545000D01*
X57490500Y-82545000D01*
X57490500Y-80005000D01*
X61722659Y-80005000D01*
X61741975Y-80201129D01*
X61741976Y-80201132D01*
X61789445Y-80357617D01*
X61799188Y-80389733D01*
X61892086Y-80563532D01*
X61892090Y-80563539D01*
X62017116Y-80715883D01*
X62169460Y-80840909D01*
X62169467Y-80840913D01*
X62343266Y-80933811D01*
X62343269Y-80933811D01*
X62343273Y-80933814D01*
X62531868Y-80991024D01*
X62728000Y-81010341D01*
X62924132Y-80991024D01*
X63112727Y-80933814D01*
X63286538Y-80840910D01*
X63438883Y-80715883D01*
X63563910Y-80563538D01*
X63656814Y-80389727D01*
X63714024Y-80201132D01*
X63733341Y-80005000D01*
X63714024Y-79808868D01*
X63656814Y-79620273D01*
X63656811Y-79620269D01*
X63656811Y-79620266D01*
X63563913Y-79446467D01*
X63563909Y-79446460D01*
X63438883Y-79294116D01*
X63286539Y-79169090D01*
X63286532Y-79169086D01*
X63112733Y-79076188D01*
X63112727Y-79076186D01*
X62924132Y-79018976D01*
X62924129Y-79018975D01*
X62728000Y-78999659D01*
X62531870Y-79018975D01*
X62343266Y-79076188D01*
X62169467Y-79169086D01*
X62169460Y-79169090D01*
X62017116Y-79294116D01*
X61892090Y-79446460D01*
X61892086Y-79446467D01*
X61799188Y-79620266D01*
X61741975Y-79808870D01*
X61722659Y-80005000D01*
X57490500Y-80005000D01*
X57490500Y-69386211D01*
X57493139Y-69360764D01*
X57495043Y-69351685D01*
X57493270Y-69337463D01*
X57490977Y-69319061D01*
X57490500Y-69311385D01*
X57490500Y-69307960D01*
X57486912Y-69286458D01*
X57486050Y-69279543D01*
X57480573Y-69235607D01*
X57480571Y-69235603D01*
X57478502Y-69228653D01*
X57478470Y-69228559D01*
X57478444Y-69228472D01*
X57476091Y-69221617D01*
X57451704Y-69176555D01*
X57429199Y-69130518D01*
X57424919Y-69124524D01*
X57420419Y-69118743D01*
X57382724Y-69084041D01*
X56144819Y-67846136D01*
X56111334Y-67784813D01*
X56108500Y-67758455D01*
X56108500Y-66485249D01*
X56108499Y-66485247D01*
X56096868Y-66426770D01*
X56096867Y-66426769D01*
X56052552Y-66360447D01*
X55986230Y-66316132D01*
X55986229Y-66316131D01*
X55927752Y-66304500D01*
X55927748Y-66304500D01*
X55592500Y-66304500D01*
X55525461Y-66284815D01*
X55479706Y-66232011D01*
X55468500Y-66180500D01*
X55468500Y-55379544D01*
X55488185Y-55312505D01*
X55540989Y-55266750D01*
X55610147Y-55256806D01*
X55673703Y-55285831D01*
G37*
%TD.AperFunction*%
M02*
